<?xml version="1.0" encoding="UTF-8"?>
<svg id="Ebene_1" data-name="Ebene 1" xmlns="http://www.w3.org/2000/svg" viewBox="0 0 99.63 52.54">
  <defs>
    <style>
      .cls-1 {
        fill: #fff;
      }
    </style>
  </defs>
  <g>
    <polygon class="cls-1" points="63.71 34.41 55.71 34.41 55.71 38.89 49.62 38.89 61.87 22.01 53.06 22.01 40.22 39.07 40.22 46.22 55.46 46.22 55.46 51.94 63.71 51.94 63.71 46.22 68.16 46.22 68.16 38.89 63.71 38.89 63.71 34.41"/>
    <path class="cls-1" d="M91.04,44.63c-1.17.6-2.45.9-3.85.9-1.23,0-2.35-.2-3.38-.6-1.03-.4-1.9-.98-2.63-1.73-.73-.75-1.3-1.66-1.71-2.72-.41-1.05-.62-2.22-.62-3.51s.21-2.45.62-3.51c.41-1.05.98-1.96,1.71-2.72.73-.76,1.6-1.33,2.63-1.73,1.03-.4,2.15-.6,3.38-.6,1.4,0,2.68.3,3.85.9,1.17.6,2.24,1.47,3.21,2.61l5.39-4.88c-1.45-1.85-3.27-3.26-5.45-4.21-2.18-.95-4.65-1.43-7.42-1.43-2.37,0-4.55.38-6.54,1.13-2,.76-3.74,1.82-5.22,3.21-1.48,1.38-2.64,3.03-3.46,4.94-.83,1.91-1.24,4.01-1.24,6.29s.41,4.38,1.24,6.29c.83,1.91,1.98,3.56,3.46,4.94,1.48,1.38,3.22,2.45,5.22,3.21,1.99.75,4.18,1.13,6.54,1.13,2.76,0,5.24-.49,7.42-1.45,2.18-.97,4-2.38,5.45-4.23l-5.39-4.88c-.97,1.17-2.04,2.05-3.21,2.65Z"/>
  </g>
  <path class="cls-1" d="M33.58,0C9.96,0,1.21,20.48.85,21.21l-.85,1.72.88,1.7c.4.78,8.27,20.68,35.02,21.59v-7.29c-19.03-1.49-24.97-11.99-27.65-16.04,2.54-3.69,10.4-15.66,25.32-15.66,11.53,0,17.84,7.15,20.23,10.62l8.82-.06c-.24-.69-6.75-17.8-29.05-17.8Z"/>
  <g>
    <polygon class="cls-1" points="34.59 30.26 35.28 30.15 32.84 28.53 31.33 30.79 34.59 30.26"/>
    <polygon class="cls-1" points="30.08 30.49 29.08 27.58 26.1 28.04 30.08 30.49"/>
    <path class="cls-1" d="M35.79,29.72l-.06-1.38-.05-1.26c-.63.53-1.39.9-2.22,1.09l2.33,1.54Z"/>
    <path class="cls-1" d="M29.82,27.78l.66,1.92.28.81,1.47-2.19c-.14,0-.27.02-.4.01-.72-.05-1.39-.25-2-.55Z"/>
    <polygon class="cls-1" points="39.88 21.73 37.86 23.38 39.21 25.25 39.88 21.73"/>
    <polygon class="cls-1" points="40.58 21.44 39.8 25.54 44.5 23.84 40.58 21.44"/>
    <path class="cls-1" d="M37.5,23.96l-.02.05c-.16.79-.47,1.52-.93,2.14l2.29-.36-1.33-1.84Z"/>
    <polygon class="cls-1" points="36.33 27.58 36.41 29.44 38.66 26.46 37.55 26.63 36.3 26.83 36.33 27.58"/>
    <polygon class="cls-1" points="36.83 19.68 39.62 20.41 37.33 17 36.83 19.68"/>
    <path class="cls-1" d="M36.24,19.38l.49-2.65-1.44.69-1.14.55h.01c.78.31,1.46.77,2.01,1.37l.07.04Z"/>
    <path class="cls-1" d="M37.6,22.78l2.07-1.7-2.75-.71c.38.69.6,1.46.64,2.28l.04.13Z"/>
    <polygon class="cls-1" points="40.3 20.27 42.29 15.77 37.7 16.42 40.3 20.27"/>
    <polygon class="cls-1" points="34.41 17.14 36.28 16.24 32.12 14.97 32.32 15.3 33.64 17.51 34.41 17.14"/>
    <polygon class="cls-1" points="26.95 16.94 29.78 17.88 30.85 15.06 26.95 16.94"/>
    <path class="cls-1" d="M27.24,24.94l-.25.44-1.18,2.06,2.88-.45c-.64-.56-1.13-1.26-1.45-2.05Z"/>
    <path class="cls-1" d="M32.94,17.66h.04s-1.5-2.51-1.5-2.51l-1.04,2.74c.68-.24,1.41-.34,2.17-.29.11,0,.21.04.32.06Z"/>
    <path class="cls-1" d="M29.38,18.41l-2.76-.91.84,2.34.14.38.02-.02c.44-.73,1.04-1.34,1.75-1.79Z"/>
    <path class="cls-1" d="M27.12,21.29h0s-.17.06-.17.06l-2.6.99,2.57,1.47c-.06-.4-.1-.82-.06-1.24.03-.45.14-.87.27-1.28Z"/>
    <polygon class="cls-1" points="25.57 17.37 20.91 17.87 23.56 21.65 25.57 17.37"/>
    <polygon class="cls-1" points="31.18 31.46 31.78 32.42 33.5 35.17 35.59 30.74 31.18 31.46"/>
    <polygon class="cls-1" points="27.98 32.69 25.89 33.57 32.85 35.33 30.54 31.62 27.98 32.69"/>
    <polygon class="cls-1" points="41.95 15.18 36 11.15 37.38 15.83 41.95 15.18"/>
    <polygon class="cls-1" points="24.13 22.94 24.37 23.79 25.3 27.05 26.45 25.03 26.78 24.46 24.13 22.94"/>
    <polygon class="cls-1" points="34.21 35.16 40.7 32.05 36.3 30.71 34.21 35.16"/>
    <polygon class="cls-1" points="40.76 20.8 40.99 20.94 44.71 23.22 42.75 16.31 41.39 19.36 40.76 20.8"/>
    <polygon class="cls-1" points="39.29 26.68 36.66 30.16 38.43 30.7 41.06 31.5 40.99 31.33 39.29 26.68"/>
    <polygon class="cls-1" points="41.6 31.15 44.63 24.47 39.79 26.22 41.6 31.15"/>
    <polygon class="cls-1" points="25.49 28.41 25.24 33.15 29.97 31.17 25.49 28.41"/>
    <polygon class="cls-1" points="34.59 10.79 27.5 11.5 31.38 14.02 34.59 10.79"/>
    <polygon class="cls-1" points="26.84 11.83 26.46 16.47 30.78 14.39 26.84 11.83"/>
    <polygon class="cls-1" points="24.23 21.7 27.07 20.62 26.24 18.31 26.06 17.82 24.23 21.7"/>
    <polygon class="cls-1" points="24.63 32.73 24.79 29.66 24.87 28.11 20.46 26.97 24.63 32.73"/>
    <polygon class="cls-1" points="32.02 14.28 33.35 14.68 36.68 15.7 35.29 10.99 33.69 12.59 32.02 14.28"/>
    <polygon class="cls-1" points="25.96 14.87 26.18 12.12 21.19 17.2 25.81 16.71 25.96 14.87"/>
    <polygon class="cls-1" points="24.64 27.05 23.46 22.9 23.38 22.98 20.28 26.27 24.74 27.42 24.64 27.05"/>
    <polygon class="cls-1" points="20.6 18.52 20.07 25.58 23.2 22.25 20.6 18.52"/>
  </g>
</svg>