<?xml version="1.0" encoding="UTF-8"?>
<svg id="Ebene_1" data-name="Ebene 1" xmlns="http://www.w3.org/2000/svg" viewBox="0 0 146.02 108.69">
  <defs>
    <style>
      .cls-1 {
        fill: #fff;
      }
    </style>
  </defs>
  <g>
    <g>
      <polygon class="cls-1" points="88.69 47.8 77.56 47.8 77.56 54.03 69.08 54.03 86.13 30.54 73.87 30.54 55.99 54.29 55.99 64.23 77.2 64.23 77.2 72.21 88.69 72.21 88.69 64.23 94.88 64.23 94.88 54.03 88.69 54.03 88.69 47.8"/>
      <path class="cls-1" d="M126.73,62.03c-1.63.83-3.41,1.25-5.36,1.25-1.71,0-3.27-.28-4.7-.83-1.43-.55-2.65-1.36-3.66-2.41-1.01-1.05-1.81-2.31-2.38-3.78-.58-1.47-.86-3.1-.86-4.88s.29-3.41.86-4.88c.58-1.47,1.37-2.73,2.38-3.78,1.01-1.05,2.23-1.86,3.66-2.41,1.43-.55,3-.83,4.7-.83,1.94,0,3.73.42,5.36,1.25,1.63.83,3.12,2.04,4.46,3.63l7.5-6.79c-2.02-2.58-4.55-4.53-7.59-5.86-3.04-1.33-6.48-1.99-10.33-1.99-3.29,0-6.33.53-9.11,1.58-2.78,1.05-5.2,2.54-7.26,4.46-2.06,1.92-3.67,4.22-4.82,6.88-1.15,2.66-1.73,5.58-1.73,8.75s.57,6.09,1.73,8.75c1.15,2.66,2.76,4.95,4.82,6.88,2.06,1.93,4.48,3.41,7.26,4.46,2.78,1.05,5.81,1.58,9.11,1.58,3.85,0,7.29-.68,10.33-2.02,3.04-1.35,5.57-3.31,7.59-5.89l-7.5-6.79c-1.35,1.63-2.84,2.86-4.46,3.69Z"/>
    </g>
    <g>
      <polygon class="cls-1" points="48.15 42.02 49.11 41.86 45.72 39.62 43.62 42.76 48.15 42.02"/>
      <polygon class="cls-1" points="41.87 42.34 40.49 38.28 36.33 38.93 41.87 42.34"/>
      <path class="cls-1" d="M49.82,41.27l-.08-1.92-.08-1.75c-.88.74-1.94,1.25-3.09,1.52l3.25,2.15Z"/>
      <path class="cls-1" d="M41.51,38.56l.91,2.68.39,1.13,2.04-3.05c-.19,0-.37.03-.56.01-1-.07-1.93-.35-2.78-.77Z"/>
      <polygon class="cls-1" points="55.52 30.14 52.71 32.45 54.59 35.04 55.52 30.14"/>
      <polygon class="cls-1" points="56.49 29.73 55.41 35.45 61.95 33.08 56.49 29.73"/>
      <path class="cls-1" d="M52.2,33.24l-.03.07c-.22,1.1-.66,2.11-1.3,2.98l3.18-.5-1.85-2.56Z"/>
      <polygon class="cls-1" points="50.57 38.29 50.68 40.87 53.82 36.73 52.27 36.97 50.53 37.24 50.57 38.29"/>
      <polygon class="cls-1" points="51.27 27.29 55.16 28.3 51.96 23.56 51.27 27.29"/>
      <path class="cls-1" d="M50.45,26.88l.68-3.69-2,.95-1.59.76h.02c1.08.43,2.03,1.08,2.8,1.91l.09.06Z"/>
      <path class="cls-1" d="M52.35,31.6l2.88-2.37-3.83-.99c.53.95.83,2.03.9,3.17l.05.19Z"/>
      <polygon class="cls-1" points="56.1 28.11 58.87 21.85 52.48 22.75 56.1 28.11"/>
      <polygon class="cls-1" points="47.9 23.75 50.51 22.51 44.71 20.73 44.99 21.2 46.83 24.27 47.9 23.75"/>
      <polygon class="cls-1" points="37.51 23.48 41.45 24.78 42.94 20.86 37.51 23.48"/>
      <path class="cls-1" d="M37.91,34.62l-.35.62-1.64,2.87,4.01-.63c-.89-.78-1.58-1.75-2.02-2.86Z"/>
      <path class="cls-1" d="M45.86,24.47h.06s-2.09-3.49-2.09-3.49l-1.44,3.81c.94-.33,1.96-.48,3.02-.4.15.01.3.06.45.08Z"/>
      <path class="cls-1" d="M40.9,25.53l-3.84-1.27,1.17,3.26.19.54.03-.03c.61-1.01,1.44-1.87,2.44-2.49Z"/>
      <path class="cls-1" d="M37.76,29.53h0s-.24.08-.24.08l-3.63,1.38,3.57,2.05c-.09-.56-.13-1.14-.09-1.73.05-.62.19-1.21.38-1.78Z"/>
      <polygon class="cls-1" points="35.6 24.08 29.11 24.77 32.79 30.03 35.6 24.08"/>
      <polygon class="cls-1" points="43.41 43.69 44.24 45.02 46.63 48.85 49.54 42.69 43.41 43.69"/>
      <polygon class="cls-1" points="38.95 45.4 36.04 46.62 45.73 49.07 42.51 43.91 38.95 45.4"/>
      <polygon class="cls-1" points="58.4 21.03 50.11 15.41 52.04 21.93 58.4 21.03"/>
      <polygon class="cls-1" points="33.59 31.83 33.92 33.02 35.22 37.55 36.83 34.74 37.28 33.94 33.59 31.83"/>
      <polygon class="cls-1" points="47.62 48.84 56.66 44.51 50.53 42.65 47.62 48.84"/>
      <polygon class="cls-1" points="56.74 28.85 57.06 29.04 62.23 32.21 59.5 22.6 57.62 26.85 56.74 28.85"/>
      <polygon class="cls-1" points="54.69 37.04 51.03 41.88 53.49 42.63 57.15 43.74 57.06 43.5 54.69 37.04"/>
      <polygon class="cls-1" points="57.91 43.26 62.13 33.95 55.4 36.39 57.91 43.26"/>
      <polygon class="cls-1" points="35.48 39.45 35.14 46.04 41.72 43.28 35.48 39.45"/>
      <polygon class="cls-1" points="48.15 14.92 38.28 15.9 43.68 19.41 48.15 14.92"/>
      <polygon class="cls-1" points="37.36 16.36 36.84 22.82 42.84 19.92 37.36 16.36"/>
      <polygon class="cls-1" points="33.73 30.11 37.69 28.6 36.53 25.39 36.28 24.7 33.73 30.11"/>
      <polygon class="cls-1" points="34.28 45.45 34.5 41.18 34.62 39.02 28.48 37.44 34.28 45.45"/>
      <polygon class="cls-1" points="44.57 19.77 46.42 20.33 51.06 21.75 49.12 15.19 46.9 17.42 44.57 19.77"/>
      <polygon class="cls-1" points="36.13 20.6 36.44 16.76 29.5 23.84 35.93 23.15 36.13 20.6"/>
      <polygon class="cls-1" points="34.3 37.55 32.65 31.78 32.55 31.89 28.24 36.47 34.44 38.06 34.3 37.55"/>
      <polygon class="cls-1" points="28.67 25.68 27.93 35.5 32.3 30.87 28.67 25.68"/>
    </g>
  </g>
  <g>
    <path class="cls-1" d="M79.85,84.16c-.39,0-.75-.07-1.08-.2-.33-.14-.62-.33-.86-.58-.24-.25-.43-.55-.57-.89s-.2-.71-.2-1.12.07-.78.2-1.12.33-.64.57-.89c.25-.25.53-.45.87-.58.33-.14.69-.2,1.08-.2.43,0,.83.08,1.18.24.35.16.65.4.89.71l-.75.74c-.17-.21-.36-.37-.57-.48-.21-.11-.44-.16-.69-.16-.23,0-.45.04-.64.13s-.37.2-.51.36c-.14.15-.25.34-.33.55-.08.21-.12.45-.12.7s.04.49.12.7.19.39.33.55c.14.15.31.27.51.36.2.09.41.13.64.13.25,0,.48-.06.69-.17.21-.11.4-.27.57-.48l.75.74c-.24.31-.53.55-.89.72-.35.17-.75.25-1.19.25Z"/>
    <path class="cls-1" d="M85.25,84.16c-.4,0-.76-.07-1.09-.21-.33-.14-.62-.33-.87-.59-.25-.25-.44-.55-.58-.89-.14-.34-.2-.71-.2-1.11s.07-.78.2-1.12.33-.63.58-.88.54-.45.87-.59c.33-.14.7-.21,1.09-.21s.76.07,1.09.2c.33.14.62.33.87.58.25.25.44.55.58.89s.2.71.2,1.12-.07.77-.2,1.12c-.14.34-.33.64-.58.89-.25.25-.54.45-.87.58-.33.14-.69.2-1.08.2ZM85.24,83.11c.22,0,.43-.04.62-.13.19-.08.35-.21.5-.36s.25-.34.33-.55c.08-.21.12-.44.12-.7s-.04-.49-.12-.7c-.08-.21-.19-.39-.33-.55s-.31-.28-.5-.36-.39-.13-.62-.13-.43.04-.62.13-.36.21-.5.36c-.14.16-.25.34-.33.55s-.12.44-.12.7.04.49.12.7.19.39.33.55c.14.16.31.28.5.36.19.09.4.13.62.13Z"/>
    <path class="cls-1" d="M89.08,84.07v-5.41h.96l2.13,3.82h-.51l2.09-3.82h.97v5.41h-1.08v-3.61s.2,0,.2,0l-1.69,3.03h-.51l-1.71-3.03h.24v3.61h-1.08Z"/>
    <path class="cls-1" d="M96.14,84.07v-5.41h2.17c.45,0,.83.08,1.16.24.32.16.57.38.75.68.18.29.26.64.26,1.04s-.09.76-.26,1.05c-.18.29-.43.52-.75.68s-.71.24-1.16.24h-1.53l.53-.56v2.05h-1.17ZM97.31,82.15l-.53-.59h1.47c.35,0,.62-.08.8-.25.18-.17.27-.4.27-.7s-.09-.53-.27-.69c-.18-.16-.45-.24-.8-.24h-1.47l.53-.59v3.07Z"/>
    <path class="cls-1" d="M101.54,84.07v-5.41h2.17c.45,0,.83.08,1.16.24.32.16.57.38.75.68.18.29.26.64.26,1.04s-.09.76-.26,1.05c-.18.29-.43.51-.75.66-.32.15-.71.23-1.16.23h-1.53l.53-.54v2.05h-1.17ZM102.7,82.15l-.53-.59h1.47c.35,0,.62-.08.8-.25.18-.17.27-.4.27-.7s-.09-.53-.27-.69c-.18-.16-.45-.24-.8-.24h-1.47l.53-.59v3.07ZM104.73,84.07l-1.26-1.96h1.24l1.26,1.96h-1.25Z"/>
    <path class="cls-1" d="M108.17,83.07h2.73v1h-3.88v-5.41h3.78v1h-2.63v3.4ZM108.09,80.83h2.41v.98h-2.41v-.98Z"/>
    <path class="cls-1" d="M113.22,84.07h-1.17v-5.41h1.17v5.41ZM115.57,81.85h-2.45v-1.06h2.45v1.06ZM115.49,78.66h1.16v5.41h-1.16v-5.41Z"/>
    <path class="cls-1" d="M119.21,83.07h2.73v1h-3.88v-5.41h3.78v1h-2.63v3.4ZM119.13,80.83h2.41v.98h-2.41v-.98Z"/>
    <path class="cls-1" d="M123.09,84.07v-5.41h.96l2.95,3.89h-.47v-3.89h1.15v5.41h-.96l-2.95-3.89h.47v3.89h-1.15Z"/>
    <path class="cls-1" d="M130.75,84.16c-.4,0-.79-.06-1.16-.17-.37-.12-.67-.27-.89-.45l.39-.94c.21.16.46.3.76.41.3.11.59.16.89.16.23,0,.41-.03.55-.08.14-.05.24-.12.31-.2s.1-.18.1-.3c0-.14-.05-.26-.16-.34s-.24-.15-.42-.21c-.17-.05-.36-.11-.57-.15s-.41-.11-.62-.18-.4-.16-.57-.28c-.17-.12-.31-.27-.42-.46-.1-.19-.15-.42-.15-.71,0-.31.08-.59.23-.85s.38-.46.7-.61c.31-.15.7-.23,1.18-.23.31,0,.63.04.93.12.31.08.58.2.8.36l-.37.94c-.22-.14-.46-.24-.69-.31-.24-.07-.47-.1-.69-.1s-.41.03-.55.08c-.14.05-.24.13-.3.22-.06.09-.1.2-.1.31,0,.14.05.26.16.35.11.09.24.16.42.2.17.05.36.1.57.15.21.05.42.11.62.18.2.07.39.16.56.27.17.11.31.26.42.45s.16.42.16.7c0,.3-.08.58-.23.83-.16.25-.39.46-.7.61-.32.15-.71.23-1.18.23Z"/>
    <path class="cls-1" d="M133.89,84.07v-5.41h1.17v5.41h-1.17Z"/>
    <path class="cls-1" d="M137.94,84.07l-2.17-5.41h1.26l1.89,4.79h-.74l1.92-4.79h1.15l-2.17,5.41h-1.14Z"/>
    <path class="cls-1" d="M143.05,83.07h2.73v1h-3.88v-5.41h3.78v1h-2.63v3.4ZM142.96,80.83h2.41v.98h-2.41v-.98Z"/>
    <path class="cls-1" d="M79.85,92.34c-.39,0-.75-.07-1.08-.2-.33-.14-.62-.33-.86-.58-.24-.25-.43-.55-.57-.89s-.2-.71-.2-1.12.07-.78.2-1.12.33-.64.57-.89c.25-.25.53-.45.87-.58.33-.14.69-.2,1.08-.2.43,0,.83.08,1.18.24.35.16.65.4.89.71l-.75.74c-.17-.21-.36-.37-.57-.48-.21-.11-.44-.16-.69-.16-.23,0-.45.04-.64.13s-.37.2-.51.36c-.14.15-.25.34-.33.55-.08.21-.12.45-.12.7s.04.49.12.7.19.39.33.55c.14.15.31.27.51.36.2.09.41.13.64.13.25,0,.48-.06.69-.17.21-.11.4-.27.57-.48l.75.74c-.24.31-.53.55-.89.72-.35.17-.75.25-1.19.25Z"/>
    <path class="cls-1" d="M85.25,92.34c-.4,0-.76-.07-1.09-.21-.33-.14-.62-.33-.87-.59-.25-.25-.44-.55-.58-.89-.14-.34-.2-.71-.2-1.11s.07-.78.2-1.12.33-.63.58-.88.54-.45.87-.59c.33-.14.7-.21,1.09-.21s.76.07,1.09.2c.33.14.62.33.87.58.25.25.44.55.58.89s.2.71.2,1.12-.07.77-.2,1.12c-.14.34-.33.64-.58.89-.25.25-.54.45-.87.58-.33.14-.69.2-1.08.2ZM85.24,91.28c.22,0,.43-.04.62-.13.19-.08.35-.21.5-.36s.25-.34.33-.55c.08-.21.12-.44.12-.7s-.04-.49-.12-.7c-.08-.21-.19-.39-.33-.55s-.31-.28-.5-.36-.39-.13-.62-.13-.43.04-.62.13-.36.21-.5.36c-.14.16-.25.34-.33.55s-.12.44-.12.7.04.49.12.7.19.39.33.55c.14.16.31.28.5.36.19.09.4.13.62.13Z"/>
    <path class="cls-1" d="M89.08,92.25v-5.41h.96l2.13,3.82h-.51l2.09-3.82h.97v5.41h-1.08v-3.61s.2,0,.2,0l-1.69,3.03h-.51l-1.71-3.03h.24v3.61h-1.08Z"/>
    <path class="cls-1" d="M96.14,92.25v-5.41h2.17c.45,0,.83.08,1.16.24.32.16.57.38.75.68.18.29.26.64.26,1.04s-.09.76-.26,1.05c-.18.29-.43.52-.75.68s-.71.24-1.16.24h-1.53l.53-.56v2.05h-1.17ZM97.31,90.33l-.53-.59h1.47c.35,0,.62-.08.8-.25.18-.17.27-.4.27-.7s-.09-.53-.27-.69c-.18-.16-.45-.24-.8-.24h-1.47l.53-.59v3.07Z"/>
    <path class="cls-1" d="M103.74,92.34c-.71,0-1.27-.21-1.67-.64s-.6-1.04-.6-1.84v-3.02h1.17v2.99c0,.51.1.88.29,1.11s.47.34.82.34.63-.11.82-.34.29-.6.29-1.11v-2.99h1.14v3.02c0,.8-.2,1.41-.6,1.84s-.95.64-1.66.64Z"/>
    <path class="cls-1" d="M108.33,92.25v-4.39h-1.6v-1.02h4.36v1.02h-1.6v4.39h-1.16Z"/>
    <path class="cls-1" d="M111.04,92.25l2.23-5.41h1.14l2.25,5.41h-1.22l-1.84-4.77h.47l-1.84,4.77h-1.19ZM112.16,91.09l.29-.95h2.59l.3.95h-3.18Z"/>
    <path class="cls-1" d="M118.19,92.25v-4.39h-1.6v-1.02h4.36v1.02h-1.6v4.39h-1.16Z"/>
    <path class="cls-1" d="M121.8,92.25v-5.41h1.17v5.41h-1.17Z"/>
    <path class="cls-1" d="M126.81,92.34c-.4,0-.76-.07-1.09-.21-.33-.14-.62-.33-.87-.59-.25-.25-.44-.55-.58-.89-.14-.34-.2-.71-.2-1.11s.07-.78.2-1.12.33-.63.58-.88.54-.45.87-.59c.33-.14.7-.21,1.09-.21s.76.07,1.09.2c.33.14.62.33.87.58.25.25.44.55.58.89s.2.71.2,1.12-.07.77-.2,1.12c-.14.34-.33.64-.58.89-.25.25-.54.45-.87.58-.33.14-.69.2-1.08.2ZM126.8,91.28c.22,0,.43-.04.62-.13.19-.08.35-.21.5-.36s.25-.34.33-.55c.08-.21.12-.44.12-.7s-.04-.49-.12-.7c-.08-.21-.19-.39-.33-.55s-.31-.28-.5-.36-.39-.13-.62-.13-.43.04-.62.13-.36.21-.5.36c-.14.16-.25.34-.33.55s-.12.44-.12.7.04.49.12.7.19.39.33.55c.14.16.31.28.5.36.19.09.4.13.62.13Z"/>
    <path class="cls-1" d="M130.64,92.25v-5.41h.96l2.95,3.89h-.47v-3.89h1.15v5.41h-.96l-2.95-3.89h.47v3.89h-1.15Z"/>
    <path class="cls-1" d="M135.99,92.25l2.23-5.41h1.14l2.25,5.41h-1.22l-1.84-4.77h.47l-1.84,4.77h-1.19ZM137.12,91.09l.29-.95h2.59l.3.95h-3.18Z"/>
    <path class="cls-1" d="M142.36,92.25v-5.41h1.17v4.39h2.5v1.02h-3.66Z"/>
    <path class="cls-1" d="M79.85,100.51c-.39,0-.75-.07-1.08-.2-.33-.14-.62-.33-.86-.58-.24-.25-.43-.55-.57-.89s-.2-.71-.2-1.12.07-.78.2-1.12.33-.64.57-.89c.25-.25.53-.45.87-.58.33-.14.69-.2,1.08-.2.43,0,.83.08,1.18.24.35.16.65.4.89.71l-.75.74c-.17-.21-.36-.37-.57-.48-.21-.11-.44-.16-.69-.16-.23,0-.45.04-.64.13s-.37.2-.51.36c-.14.15-.25.34-.33.55-.08.21-.12.45-.12.7s.04.49.12.7.19.39.33.55c.14.15.31.27.51.36.2.09.41.13.64.13.25,0,.48-.06.69-.17.21-.11.4-.27.57-.48l.75.74c-.24.31-.53.55-.89.72-.35.17-.75.25-1.19.25Z"/>
    <path class="cls-1" d="M85.25,100.51c-.4,0-.76-.07-1.09-.21-.33-.14-.62-.33-.87-.59-.25-.25-.44-.55-.58-.89-.14-.34-.2-.71-.2-1.11s.07-.78.2-1.12.33-.63.58-.88.54-.45.87-.59c.33-.14.7-.21,1.09-.21s.76.07,1.09.2c.33.14.62.33.87.58.25.25.44.55.58.89s.2.71.2,1.12-.07.77-.2,1.12c-.14.34-.33.64-.58.89-.25.25-.54.45-.87.58-.33.14-.69.2-1.08.2ZM85.24,99.46c.22,0,.43-.04.62-.13.19-.08.35-.21.5-.36s.25-.34.33-.55c.08-.21.12-.44.12-.7s-.04-.49-.12-.7c-.08-.21-.19-.39-.33-.55s-.31-.28-.5-.36-.39-.13-.62-.13-.43.04-.62.13-.36.21-.5.36c-.14.16-.25.34-.33.55s-.12.44-.12.7.04.49.12.7.19.39.33.55c.14.16.31.28.5.36.19.09.4.13.62.13Z"/>
    <path class="cls-1" d="M89.08,100.42v-5.41h.96l2.13,3.82h-.51l2.09-3.82h.97v5.41h-1.08v-3.61s.2,0,.2,0l-1.69,3.03h-.51l-1.71-3.03h.24v3.61h-1.08Z"/>
    <path class="cls-1" d="M96.14,100.42v-5.41h.96l2.13,3.82h-.51l2.09-3.82h.97v5.41h-1.08v-3.61s.2,0,.2,0l-1.69,3.03h-.51l-1.71-3.03h.24v3.61h-1.08Z"/>
    <path class="cls-1" d="M105.43,100.51c-.71,0-1.27-.21-1.67-.64s-.6-1.04-.6-1.84v-3.02h1.17v2.99c0,.51.1.88.29,1.11s.47.34.82.34.63-.11.82-.34.29-.6.29-1.11v-2.99h1.14v3.02c0,.8-.2,1.41-.6,1.84s-.95.64-1.66.64Z"/>
    <path class="cls-1" d="M109.07,100.42v-5.41h.96l2.95,3.89h-.47v-3.89h1.15v5.41h-.96l-2.95-3.89h.47v3.89h-1.15Z"/>
    <path class="cls-1" d="M115.08,100.42v-5.41h1.17v5.41h-1.17Z"/>
    <path class="cls-1" d="M118.69,100.42v-4.39h-1.6v-1.02h4.36v1.02h-1.6v4.39h-1.16Z"/>
    <path class="cls-1" d="M123.45,100.42v-2.21l.26.76-2.21-3.96h1.24l1.69,3.03h-.71l1.7-3.03h1.13l-2.2,3.96.26-.76v2.21h-1.17Z"/>
    <path class="cls-1" d="M79.85,108.69c-.39,0-.75-.07-1.08-.2-.33-.14-.62-.33-.86-.58-.24-.25-.43-.55-.57-.89s-.2-.71-.2-1.12.07-.78.2-1.12.33-.64.57-.89c.25-.25.53-.45.87-.58.33-.14.69-.2,1.08-.2.43,0,.83.08,1.18.24.35.16.65.4.89.71l-.75.74c-.17-.21-.36-.37-.57-.48-.21-.11-.44-.16-.69-.16-.23,0-.45.04-.64.13s-.37.2-.51.36c-.14.15-.25.34-.33.55-.08.21-.12.45-.12.7s.04.49.12.7.19.39.33.55c.14.15.31.27.51.36.2.09.41.13.64.13.25,0,.48-.06.69-.17.21-.11.4-.27.57-.48l.75.74c-.24.31-.53.55-.89.72-.35.17-.75.25-1.19.25Z"/>
    <path class="cls-1" d="M85.25,108.69c-.4,0-.76-.07-1.09-.21-.33-.14-.62-.33-.87-.59-.25-.25-.44-.55-.58-.89-.14-.34-.2-.71-.2-1.11s.07-.78.2-1.12.33-.63.58-.88.54-.45.87-.59c.33-.14.7-.21,1.09-.21s.76.07,1.09.2c.33.14.62.33.87.58.25.25.44.55.58.89s.2.71.2,1.12-.07.77-.2,1.12c-.14.34-.33.64-.58.89-.25.25-.54.45-.87.58-.33.14-.69.2-1.08.2ZM85.24,107.63c.22,0,.43-.04.62-.13.19-.08.35-.21.5-.36s.25-.34.33-.55c.08-.21.12-.44.12-.7s-.04-.49-.12-.7c-.08-.21-.19-.39-.33-.55s-.31-.28-.5-.36-.39-.13-.62-.13-.43.04-.62.13-.36.21-.5.36c-.14.16-.25.34-.33.55s-.12.44-.12.7.04.49.12.7.19.39.33.55c.14.16.31.28.5.36.19.09.4.13.62.13Z"/>
    <path class="cls-1" d="M89.08,108.6v-5.41h2.27c.54,0,1.02.11,1.44.34s.74.54.97.94c.23.4.35.88.35,1.43s-.12,1.02-.35,1.43c-.23.4-.56.72-.97.94s-.89.34-1.44.34h-2.27ZM90.25,107.58h1.05c.33,0,.62-.07.87-.2.25-.14.44-.33.57-.59s.2-.55.2-.89-.07-.64-.2-.9-.33-.45-.57-.58c-.25-.14-.54-.2-.87-.2h-1.05v3.37Z"/>
    <path class="cls-1" d="M96.37,107.59h2.73v1h-3.88v-5.41h3.78v1h-2.63v3.4ZM96.29,105.36h2.41v.98h-2.41v-.98Z"/>
  </g>
  <path class="cls-1" d="M46.55,0C13.81,0,1.67,28.39,1.17,29.41l-1.17,2.38,1.22,2.36c.56,1.09,11.47,28.67,48.56,29.94v-10.1c-26.39-2.07-34.61-16.63-38.33-22.24,3.52-5.11,14.42-21.72,35.1-21.72,15.98,0,24.74,9.92,28.04,14.72l12.23-.08c-.33-.96-9.36-24.68-40.27-24.68Z"/>
</svg>