<?xml version="1.0" encoding="UTF-8"?>
<svg id="Ebene_1" xmlns="http://www.w3.org/2000/svg" version="1.1" xmlns:xlink="http://www.w3.org/1999/xlink" viewBox="0 0 161.94 124.75">
  <!-- Generator: Adobe Illustrator 29.3.1, SVG Export Plug-In . SVG Version: 2.1.0 Build 151)  -->
  <defs>
    <style>
      .st0 {
        fill: url(#Neues_Verlaufsfeld_1);
      }

      .st1 {
        fill: #1d71b8;
      }

      .st2 {
        fill: #3c3c3b;
      }

      .st3 {
        fill: none;
        stroke: #3c3c3b;
        stroke-linecap: round;
        stroke-linejoin: round;
        stroke-width: .26px;
      }
    </style>
    <linearGradient id="Neues_Verlaufsfeld_1" data-name="Neues Verlaufsfeld 1" x1="-.92" y1="70.53" x2="17.99" y2="45.23" gradientTransform="translate(48.97 -17.92) rotate(4.27)" gradientUnits="userSpaceOnUse">
      <stop offset="0" stop-color="#4258a3"/>
      <stop offset=".58" stop-color="#2aa8e0"/>
      <stop offset="1" stop-color="#8fd0de"/>
    </linearGradient>
  </defs>
  <g>
    <path class="st1" d="M87.71,92.49c-.39,0-.75-.07-1.08-.2-.33-.14-.62-.33-.86-.58-.24-.25-.43-.55-.57-.89s-.2-.71-.2-1.12.07-.78.2-1.12.33-.64.57-.89c.25-.25.53-.45.87-.58.33-.14.69-.2,1.08-.2.43,0,.83.08,1.18.24.35.16.65.4.89.71l-.75.74c-.17-.21-.36-.37-.57-.48-.21-.11-.44-.16-.69-.16-.23,0-.45.04-.64.13-.2.08-.36.2-.51.36-.14.15-.25.34-.33.55-.08.21-.12.45-.12.7s.04.49.12.7.19.39.33.55c.14.15.31.27.51.36.2.09.41.13.64.13.25,0,.48-.06.69-.17s.4-.27.57-.48l.75.74c-.24.31-.53.55-.89.72-.35.17-.75.25-1.19.25Z"/>
    <path class="st2" d="M93.11,92.49c-.4,0-.76-.07-1.09-.21-.33-.14-.63-.33-.87-.59-.25-.25-.44-.55-.58-.89-.14-.34-.2-.71-.2-1.11s.07-.78.2-1.12.33-.63.58-.88c.25-.25.54-.45.87-.59.33-.14.69-.21,1.09-.21s.76.07,1.09.2c.33.14.62.33.87.58.25.25.44.55.58.89s.2.71.2,1.12-.07.77-.2,1.12c-.14.34-.33.64-.58.89-.25.25-.54.45-.87.58-.33.14-.69.2-1.08.2ZM93.1,91.43c.22,0,.43-.04.62-.13.19-.08.35-.21.5-.36s.25-.34.33-.55.12-.44.12-.7-.04-.49-.12-.7-.19-.39-.33-.55-.31-.28-.5-.36c-.19-.08-.39-.13-.62-.13s-.43.04-.62.13c-.19.08-.36.21-.5.36s-.25.34-.33.55-.12.44-.12.7.04.49.12.7.19.39.33.55.31.28.5.36c.19.09.4.13.62.13Z"/>
    <path class="st2" d="M96.94,92.39v-5.41h.96l2.13,3.82h-.51l2.09-3.82h.97v5.41h-1.08v-3.61s.2,0,.2,0l-1.69,3.03h-.51l-1.71-3.03h.24v3.61h-1.08Z"/>
    <path class="st2" d="M104,92.39v-5.41h2.17c.45,0,.83.08,1.16.24.32.16.57.38.75.68s.26.64.26,1.04-.09.76-.26,1.05-.43.52-.75.68c-.32.16-.71.24-1.16.24h-1.53l.53-.56v2.05h-1.17ZM105.17,90.48l-.53-.59h1.47c.35,0,.62-.08.8-.25.18-.17.27-.4.27-.7s-.09-.53-.27-.69c-.18-.16-.45-.24-.8-.24h-1.47l.53-.59v3.07Z"/>
    <path class="st2" d="M109.4,92.39v-5.41h2.17c.45,0,.83.08,1.16.24.32.16.57.38.75.68s.26.64.26,1.04-.09.76-.26,1.05-.43.51-.75.66c-.32.15-.71.23-1.16.23h-1.53l.53-.54v2.05h-1.17ZM110.56,90.48l-.53-.59h1.47c.35,0,.62-.08.8-.25.18-.17.27-.4.27-.7s-.09-.53-.27-.69c-.18-.16-.45-.24-.8-.24h-1.47l.53-.59v3.07ZM112.59,92.39l-1.26-1.96h1.24l1.26,1.96h-1.24Z"/>
    <path class="st2" d="M116.03,91.39h2.73v1h-3.88v-5.41h3.78v1h-2.63v3.4ZM115.95,89.16h2.41v.98h-2.41v-.98Z"/>
    <path class="st2" d="M121.08,92.39h-1.17v-5.41h1.17v5.41ZM123.43,90.18h-2.45v-1.06h2.45v1.06ZM123.35,86.98h1.16v5.41h-1.16v-5.41Z"/>
    <path class="st2" d="M127.07,91.39h2.73v1h-3.88v-5.41h3.78v1h-2.63v3.4ZM126.99,89.16h2.41v.98h-2.41v-.98Z"/>
    <path class="st2" d="M130.95,92.39v-5.41h.96l2.95,3.89h-.46v-3.89h1.14v5.41h-.96l-2.95-3.89h.46v3.89h-1.14Z"/>
    <path class="st2" d="M138.61,92.49c-.4,0-.79-.06-1.16-.17-.37-.12-.67-.27-.89-.45l.39-.94c.21.16.46.3.76.41.3.11.59.16.89.16.23,0,.41-.03.55-.08.14-.05.24-.12.31-.2.07-.08.1-.18.1-.3,0-.14-.05-.26-.16-.34-.11-.08-.24-.15-.42-.21-.17-.05-.36-.11-.57-.15-.21-.05-.41-.11-.62-.18s-.4-.16-.57-.28c-.17-.12-.31-.27-.42-.46-.1-.19-.15-.42-.15-.71,0-.31.08-.59.23-.85.15-.25.39-.46.7-.61.31-.15.7-.23,1.18-.23.32,0,.63.04.93.12.31.08.58.2.8.36l-.36.94c-.22-.14-.46-.24-.69-.31s-.47-.1-.69-.1-.41.03-.55.08c-.14.05-.24.13-.3.22-.06.09-.1.2-.1.31,0,.14.05.26.16.35.1.09.24.16.41.2.17.05.36.1.57.15.21.05.42.11.62.18.2.07.39.16.57.27.17.11.31.26.42.45.11.19.16.42.16.7,0,.3-.08.58-.23.83-.15.25-.39.46-.7.61-.31.15-.71.23-1.18.23Z"/>
    <path class="st2" d="M141.75,92.39v-5.41h1.17v5.41h-1.17Z"/>
    <path class="st2" d="M145.8,92.39l-2.17-5.41h1.26l1.89,4.79h-.74l1.92-4.79h1.15l-2.17,5.41h-1.14Z"/>
    <path class="st2" d="M150.91,91.39h2.73v1h-3.88v-5.41h3.78v1h-2.63v3.4ZM150.82,89.16h2.41v.98h-2.41v-.98Z"/>
    <path class="st1" d="M87.71,100.66c-.39,0-.75-.07-1.08-.2-.33-.14-.62-.33-.86-.58-.24-.25-.43-.55-.57-.89s-.2-.71-.2-1.12.07-.78.2-1.12.33-.64.57-.89c.25-.25.53-.45.87-.58.33-.14.69-.2,1.08-.2.43,0,.83.08,1.18.24.35.16.65.4.89.71l-.75.74c-.17-.21-.36-.37-.57-.48-.21-.11-.44-.16-.69-.16-.23,0-.45.04-.64.13-.2.08-.36.2-.51.36-.14.15-.25.34-.33.55-.08.21-.12.45-.12.7s.04.49.12.7.19.39.33.55c.14.15.31.27.51.36.2.09.41.13.64.13.25,0,.48-.06.69-.17s.4-.27.57-.48l.75.74c-.24.31-.53.55-.89.72-.35.17-.75.25-1.19.25Z"/>
    <path class="st2" d="M93.11,100.66c-.4,0-.76-.07-1.09-.21-.33-.14-.63-.33-.87-.59-.25-.25-.44-.55-.58-.89-.14-.34-.2-.71-.2-1.11s.07-.78.2-1.12.33-.63.58-.88c.25-.25.54-.45.87-.59.33-.14.69-.21,1.09-.21s.76.07,1.09.2c.33.14.62.33.87.58.25.25.44.55.58.89s.2.71.2,1.12-.07.77-.2,1.12c-.14.34-.33.64-.58.89-.25.25-.54.45-.87.58-.33.14-.69.2-1.08.2ZM93.1,99.6c.22,0,.43-.04.62-.13.19-.08.35-.21.5-.36s.25-.34.33-.55.12-.44.12-.7-.04-.49-.12-.7-.19-.39-.33-.55-.31-.28-.5-.36c-.19-.08-.39-.13-.62-.13s-.43.04-.62.13c-.19.08-.36.21-.5.36s-.25.34-.33.55-.12.44-.12.7.04.49.12.7.19.39.33.55.31.28.5.36c.19.09.4.13.62.13Z"/>
    <path class="st2" d="M96.94,100.57v-5.41h.96l2.13,3.82h-.51l2.09-3.82h.97v5.41h-1.08v-3.61s.2,0,.2,0l-1.69,3.03h-.51l-1.71-3.03h.24v3.61h-1.08Z"/>
    <path class="st2" d="M104,100.57v-5.41h2.17c.45,0,.83.08,1.16.24.32.16.57.38.75.68s.26.64.26,1.04-.09.76-.26,1.05-.43.52-.75.68c-.32.16-.71.24-1.16.24h-1.53l.53-.56v2.05h-1.17ZM105.17,98.65l-.53-.59h1.47c.35,0,.62-.08.8-.25.18-.17.27-.4.27-.7s-.09-.53-.27-.69c-.18-.16-.45-.24-.8-.24h-1.47l.53-.59v3.07Z"/>
    <path class="st2" d="M111.6,100.66c-.71,0-1.27-.21-1.67-.64-.4-.43-.6-1.04-.6-1.84v-3.02h1.17v2.99c0,.51.1.88.29,1.11.2.23.47.34.82.34s.63-.11.82-.34c.2-.23.29-.6.29-1.11v-2.99h1.14v3.02c0,.8-.2,1.41-.6,1.84s-.95.64-1.66.64Z"/>
    <path class="st2" d="M116.19,100.57v-4.39h-1.6v-1.02h4.36v1.02h-1.6v4.39h-1.16Z"/>
    <path class="st2" d="M118.9,100.57l2.22-5.41h1.14l2.25,5.41h-1.22l-1.84-4.77h.46l-1.84,4.77h-1.19ZM120.02,99.41l.29-.95h2.59l.3.95h-3.18Z"/>
    <path class="st2" d="M126.05,100.57v-4.39h-1.6v-1.02h4.36v1.02h-1.6v4.39h-1.16Z"/>
    <path class="st2" d="M129.66,100.57v-5.41h1.17v5.41h-1.17Z"/>
    <path class="st2" d="M134.67,100.66c-.4,0-.76-.07-1.09-.21-.33-.14-.63-.33-.87-.59-.25-.25-.44-.55-.58-.89-.14-.34-.2-.71-.2-1.11s.07-.78.2-1.12.33-.63.58-.88c.25-.25.54-.45.87-.59.33-.14.69-.21,1.09-.21s.76.07,1.09.2c.33.14.62.33.87.58.25.25.44.55.58.89s.2.71.2,1.12-.07.77-.2,1.12c-.14.34-.33.64-.58.89-.25.25-.54.45-.87.58-.33.14-.69.2-1.08.2ZM134.66,99.6c.22,0,.43-.04.62-.13.19-.08.35-.21.5-.36s.25-.34.33-.55.12-.44.12-.7-.04-.49-.12-.7-.19-.39-.33-.55-.31-.28-.5-.36c-.19-.08-.39-.13-.62-.13s-.43.04-.62.13c-.19.08-.36.21-.5.36s-.25.34-.33.55-.12.44-.12.7.04.49.12.7.19.39.33.55.31.28.5.36c.19.09.4.13.62.13Z"/>
    <path class="st2" d="M138.5,100.57v-5.41h.96l2.95,3.89h-.46v-3.89h1.14v5.41h-.96l-2.95-3.89h.46v3.89h-1.14Z"/>
    <path class="st2" d="M143.85,100.57l2.22-5.41h1.14l2.25,5.41h-1.22l-1.84-4.77h.46l-1.84,4.77h-1.19ZM144.98,99.41l.29-.95h2.59l.3.95h-3.18Z"/>
    <path class="st2" d="M150.22,100.57v-5.41h1.17v4.39h2.5v1.02h-3.66Z"/>
    <path class="st1" d="M87.71,108.84c-.39,0-.75-.07-1.08-.2-.33-.14-.62-.33-.86-.58-.24-.25-.43-.55-.57-.89s-.2-.71-.2-1.12.07-.78.2-1.12.33-.64.57-.89c.25-.25.53-.45.87-.58.33-.14.69-.2,1.08-.2.43,0,.83.08,1.18.24.35.16.65.4.89.71l-.75.74c-.17-.21-.36-.37-.57-.48-.21-.11-.44-.16-.69-.16-.23,0-.45.04-.64.13-.2.08-.36.2-.51.36-.14.15-.25.34-.33.55-.08.21-.12.45-.12.7s.04.49.12.7.19.39.33.55c.14.15.31.27.51.36.2.09.41.13.64.13.25,0,.48-.06.69-.17s.4-.27.57-.48l.75.74c-.24.31-.53.55-.89.72-.35.17-.75.25-1.19.25Z"/>
    <path class="st2" d="M93.11,108.84c-.4,0-.76-.07-1.09-.21-.33-.14-.63-.33-.87-.59-.25-.25-.44-.55-.58-.89-.14-.34-.2-.71-.2-1.11s.07-.78.2-1.12.33-.63.58-.88c.25-.25.54-.45.87-.59.33-.14.69-.21,1.09-.21s.76.07,1.09.2c.33.14.62.33.87.58.25.25.44.55.58.89s.2.71.2,1.12-.07.77-.2,1.12c-.14.34-.33.64-.58.89-.25.25-.54.45-.87.58-.33.14-.69.2-1.08.2ZM93.1,107.78c.22,0,.43-.04.62-.13.19-.08.35-.21.5-.36s.25-.34.33-.55.12-.44.12-.7-.04-.49-.12-.7-.19-.39-.33-.55-.31-.28-.5-.36c-.19-.08-.39-.13-.62-.13s-.43.04-.62.13c-.19.08-.36.21-.5.36s-.25.34-.33.55-.12.44-.12.7.04.49.12.7.19.39.33.55.31.28.5.36c.19.09.4.13.62.13Z"/>
    <path class="st2" d="M96.94,108.74v-5.41h.96l2.13,3.82h-.51l2.09-3.82h.97v5.41h-1.08v-3.61s.2,0,.2,0l-1.69,3.03h-.51l-1.71-3.03h.24v3.61h-1.08Z"/>
    <path class="st2" d="M104,108.74v-5.41h.96l2.13,3.82h-.51l2.09-3.82h.97v5.41h-1.08v-3.61s.2,0,.2,0l-1.69,3.03h-.51l-1.71-3.03h.24v3.61h-1.08Z"/>
    <path class="st2" d="M113.29,108.84c-.71,0-1.27-.21-1.67-.64-.4-.43-.6-1.04-.6-1.84v-3.02h1.17v2.99c0,.51.1.88.29,1.11.2.23.47.34.82.34s.63-.11.82-.34c.2-.23.29-.6.29-1.11v-2.99h1.14v3.02c0,.8-.2,1.41-.6,1.84s-.95.64-1.66.64Z"/>
    <path class="st2" d="M116.93,108.74v-5.41h.96l2.95,3.89h-.46v-3.89h1.14v5.41h-.96l-2.95-3.89h.46v3.89h-1.14Z"/>
    <path class="st2" d="M122.94,108.74v-5.41h1.17v5.41h-1.17Z"/>
    <path class="st2" d="M126.55,108.74v-4.39h-1.6v-1.02h4.36v1.02h-1.6v4.39h-1.16Z"/>
    <path class="st2" d="M131.31,108.74v-2.21l.26.76-2.21-3.96h1.24l1.69,3.03h-.71l1.7-3.03h1.13l-2.2,3.96.26-.76v2.21h-1.17Z"/>
    <path class="st1" d="M87.71,117.01c-.39,0-.75-.07-1.08-.2-.33-.14-.62-.33-.86-.58-.24-.25-.43-.55-.57-.89s-.2-.71-.2-1.12.07-.78.2-1.12.33-.64.57-.89c.25-.25.53-.45.87-.58.33-.14.69-.2,1.08-.2.43,0,.83.08,1.18.24.35.16.65.4.89.71l-.75.74c-.17-.21-.36-.37-.57-.48-.21-.11-.44-.16-.69-.16-.23,0-.45.04-.64.13-.2.08-.36.2-.51.36-.14.15-.25.34-.33.55-.08.21-.12.45-.12.7s.04.49.12.7.19.39.33.55c.14.15.31.27.51.36.2.09.41.13.64.13.25,0,.48-.06.69-.17s.4-.27.57-.48l.75.74c-.24.31-.53.55-.89.72-.35.17-.75.25-1.19.25Z"/>
    <path class="st2" d="M93.11,117.01c-.4,0-.76-.07-1.09-.21-.33-.14-.63-.33-.87-.59-.25-.25-.44-.55-.58-.89-.14-.34-.2-.71-.2-1.11s.07-.78.2-1.12.33-.63.58-.88c.25-.25.54-.45.87-.59.33-.14.69-.21,1.09-.21s.76.07,1.09.2c.33.14.62.33.87.58.25.25.44.55.58.89s.2.71.2,1.12-.07.77-.2,1.12c-.14.34-.33.64-.58.89-.25.25-.54.45-.87.58-.33.14-.69.2-1.08.2ZM93.1,115.95c.22,0,.43-.04.62-.13.19-.08.35-.21.5-.36s.25-.34.33-.55.12-.44.12-.7-.04-.49-.12-.7-.19-.39-.33-.55-.31-.28-.5-.36c-.19-.08-.39-.13-.62-.13s-.43.04-.62.13c-.19.08-.36.21-.5.36s-.25.34-.33.55-.12.44-.12.7.04.49.12.7.19.39.33.55.31.28.5.36c.19.09.4.13.62.13Z"/>
    <path class="st2" d="M96.94,116.92v-5.41h2.27c.54,0,1.02.11,1.44.34.41.22.74.54.97.94.23.4.35.88.35,1.43s-.12,1.02-.35,1.43c-.23.4-.56.72-.97.94-.42.22-.89.34-1.44.34h-2.27ZM98.11,115.9h1.05c.33,0,.62-.07.87-.2.25-.14.44-.33.57-.59.14-.25.2-.55.2-.89s-.07-.64-.2-.9c-.14-.25-.33-.45-.57-.58-.25-.14-.54-.2-.87-.2h-1.05v3.37Z"/>
    <path class="st2" d="M104.23,115.91h2.73v1h-3.88v-5.41h3.78v1h-2.63v3.4ZM104.15,113.68h2.41v.98h-2.41v-.98Z"/>
  </g>
  <g>
    <polygon class="st1" points="96.64 56.03 85.55 56.03 85.55 62.24 77.11 62.24 94.09 38.84 81.88 38.84 64.07 62.5 64.07 72.4 85.2 72.4 85.2 80.34 96.64 80.34 96.64 72.4 102.81 72.4 102.81 62.24 96.64 62.24 96.64 56.03"/>
    <path class="st1" d="M134.52,70.2c-1.62.83-3.4,1.24-5.34,1.24-1.7,0-3.26-.28-4.68-.83-1.42-.55-2.64-1.35-3.65-2.4-1.01-1.05-1.8-2.3-2.37-3.76-.57-1.46-.86-3.08-.86-4.86s.29-3.4.86-4.86c.57-1.46,1.36-2.72,2.37-3.76,1.01-1.05,2.22-1.85,3.65-2.4,1.42-.55,2.98-.83,4.68-.83,1.94,0,3.71.42,5.34,1.25,1.62.83,3.1,2.04,4.45,3.62l7.47-6.76c-2.02-2.57-4.54-4.52-7.56-5.84-3.02-1.32-6.45-1.99-10.29-1.99-3.28,0-6.3.52-9.07,1.57-2.77,1.05-5.18,2.53-7.23,4.45-2.06,1.92-3.66,4.2-4.8,6.85-1.15,2.65-1.72,5.55-1.72,8.71s.57,6.07,1.72,8.72c1.15,2.65,2.75,4.93,4.8,6.85,2.06,1.92,4.47,3.4,7.23,4.45,2.77,1.05,5.79,1.57,9.07,1.57,3.83,0,7.26-.67,10.29-2.02,3.02-1.34,5.54-3.3,7.56-5.87l-7.47-6.76c-1.34,1.62-2.83,2.85-4.45,3.68Z"/>
  </g>
  <path class="st2" d="M54.86,8.32c-32.74,0-44.88,28.39-45.38,29.41l-1.17,2.38,1.22,2.36c.56,1.09,11.47,28.67,48.56,29.94v-10.1c-26.39-2.07-34.61-16.63-38.33-22.24,3.52-5.11,14.42-21.72,35.1-21.72,15.98,0,24.74,9.92,28.04,14.72l12.23-.08c-.33-.96-9.36-24.68-40.27-24.68Z"/>
  <path class="st0" d="M67.7,29.57l-10.22-6.92-12.3,1.22-8.63,8.79-.91,12.25,7.22,9.98,11.98,3.03,11.14-5.33,5.08-11.2-3.36-11.83ZM58.21,45.06l-4.45,2.13-4.79-1.21-2.89-3.99.37-4.9,3.45-3.52,4.92-.49,4.09,2.77,1.34,4.73-2.03,4.48Z"/>
  <g id="figure_1">
    <g id="axes_1">
      <g id="patch_2">
        <path class="st3" d="M62.92,44.41l1.34-7.07-4.05,3.33,2.71,3.74Z"/>
      </g>
      <g id="patch_3">
        <path class="st3" d="M50.82,51.61l-7.57-4.66-.42,8.01,7.99-3.36Z"/>
      </g>
      <g id="patch_4">
        <path class="st3" d="M46.4,37.17l-5.36,2.04,5,2.86.37-4.9Z"/>
      </g>
      <g id="patch_5">
        <path class="st3" d="M51.87,28.32l-7.38,3.56,5.36,1.77,2.02-5.33Z"/>
      </g>
      <g id="patch_6">
        <path class="st3" d="M67.66,29.65l-10.22-6.92,2.38,8.03,7.84-1.11Z"/>
      </g>
      <g id="patch_7">
        <path class="st3" d="M64.26,37.33l-5.4-1.4,1.34,4.73,4.05-3.33Z"/>
      </g>
      <g id="patch_8">
        <path class="st3" d="M67.66,29.65l-3.4,7.69,6.76,4.14-3.36-11.83Z"/>
      </g>
      <g id="patch_9">
        <path class="st3" d="M59.82,30.75l-5.05,2.41,4.09,2.77.96-5.18Z"/>
      </g>
      <g id="patch_10">
        <path class="st3" d="M44.5,31.89l1.91,5.29,3.45-3.52-5.36-1.77Z"/>
      </g>
      <g id="patch_11">
        <path class="st3" d="M51.87,28.32l7.95,2.43-2.38-8.03-5.57,5.6Z"/>
      </g>
      <g id="patch_12">
        <path class="st3" d="M41.04,39.21l2.2,7.74,2.79-4.88-5-2.86Z"/>
      </g>
      <g id="patch_13">
        <path class="st3" d="M36.52,32.74l7.98-.85.64-7.94-8.63,8.79Z"/>
      </g>
      <g id="patch_14">
        <path class="st3" d="M43.24,46.95l5.68-.89-2.89-3.99-2.79,4.88Z"/>
      </g>
      <g id="patch_15">
        <path class="st3" d="M58.4,50.37l-.23-5.23-4.45,2.13,4.68,3.1Z"/>
      </g>
      <g id="patch_16">
        <path class="st3" d="M42.83,54.96l.42-8.01-7.64-1.96,7.22,9.98Z"/>
      </g>
      <g id="patch_17">
        <path class="st3" d="M54.81,58l-3.99-6.39-7.99,3.36,11.98,3.03Z"/>
      </g>
      <g id="patch_18">
        <path class="st3" d="M62.92,44.41l-2.71-3.74-2.03,4.48,4.74-.74Z"/>
      </g>
      <g id="patch_19">
        <path class="st3" d="M65.94,52.67l-7.54-2.3-3.59,7.62,11.14-5.33Z"/>
      </g>
      <g id="patch_20">
        <path class="st3" d="M62.92,44.41l3.03,8.26,5.08-11.2-8.1,2.93Z"/>
      </g>
      <g id="patch_21">
        <path class="st3" d="M62.92,44.41l-4.52,5.97,7.54,2.3-3.03-8.26Z"/>
      </g>
      <g id="patch_22">
        <path class="st3" d="M50.82,51.61l7.58-1.23-4.68-3.1-2.9,4.33Z"/>
      </g>
      <g id="patch_23">
        <path class="st3" d="M50.82,51.61l2.9-4.33-4.79-1.21,1.89,5.55Z"/>
      </g>
      <g id="patch_24">
        <path class="st3" d="M41.04,39.21l-4.53-6.47-.91,12.25,5.44-5.78Z"/>
      </g>
      <g id="patch_25">
        <path class="st3" d="M41.04,39.21l3.46-7.32-7.98.85,4.53,6.47Z"/>
      </g>
      <g id="patch_26">
        <path class="st3" d="M51.87,28.32l5.57-5.6-12.3,1.22,6.73,4.38Z"/>
      </g>
      <g id="patch_27">
        <path class="st3" d="M51.87,28.32l-2.02,5.33,4.92-.49-2.9-4.84Z"/>
      </g>
      <g id="patch_28">
        <path class="st3" d="M64.26,37.33l-4.44-6.58-.96,5.18,5.4,1.4Z"/>
      </g>
      <g id="patch_29">
        <path class="st3" d="M64.26,37.33l-1.34,7.07,8.1-2.93-6.76-4.14Z"/>
      </g>
      <g id="patch_30">
        <path class="st3" d="M59.82,30.75l-7.95-2.43,2.9,4.84,5.05-2.41Z"/>
      </g>
      <g id="patch_31">
        <path class="st3" d="M59.82,30.75l4.44,6.58,3.4-7.69-7.84,1.11Z"/>
      </g>
      <g id="patch_32">
        <path class="st3" d="M44.5,31.89l7.38-3.56-6.73-4.38-.64,7.94Z"/>
      </g>
      <g id="patch_33">
        <path class="st3" d="M44.5,31.89l-3.46,7.32,5.36-2.04-1.91-5.29Z"/>
      </g>
      <g id="patch_34">
        <path class="st3" d="M43.24,46.95l7.57,4.66-1.89-5.55-5.68.89Z"/>
      </g>
      <g id="patch_35">
        <path class="st3" d="M43.24,46.95l-2.2-7.74-5.44,5.78,7.64,1.96Z"/>
      </g>
      <g id="patch_36">
        <path class="st3" d="M58.4,50.37l-7.58,1.23,3.99,6.39,3.59-7.62Z"/>
      </g>
      <g id="patch_37">
        <path class="st3" d="M58.4,50.37l4.52-5.97-4.74.74.23,5.23Z"/>
      </g>
    </g>
  </g>
  <circle class="st2" cx="53.03" cy="40.05" r="7.19"/>
</svg>