<?xml version="1.0" encoding="UTF-8"?>
<svg id="Ebene_1" xmlns="http://www.w3.org/2000/svg" version="1.1" xmlns:xlink="http://www.w3.org/1999/xlink" viewBox="0 0 161.94 124.75">
  <!-- Generator: Adobe Illustrator 29.3.1, SVG Export Plug-In . SVG Version: 2.1.0 Build 151)  -->
  <defs>
    <style>
      .st0 {
        fill: #1d1d1b;
      }
    </style>
  </defs>
  <g>
    <g>
      <polygon class="st0" points="96.64 56 85.51 56 85.51 62.23 77.03 62.23 94.08 38.74 81.82 38.74 63.94 62.49 63.94 72.43 85.15 72.43 85.15 80.41 96.64 80.41 96.64 72.43 102.83 72.43 102.83 62.23 96.64 62.23 96.64 56"/>
      <path class="st0" d="M134.68,70.23c-1.63.83-3.41,1.25-5.36,1.25-1.71,0-3.27-.28-4.7-.83-1.43-.55-2.65-1.36-3.66-2.41s-1.81-2.31-2.38-3.78c-.58-1.47-.86-3.1-.86-4.88s.29-3.41.86-4.88c.58-1.47,1.37-2.73,2.38-3.78,1.01-1.05,2.23-1.86,3.66-2.41s3-.83,4.7-.83c1.94,0,3.73.42,5.36,1.25s3.12,2.04,4.46,3.63l7.5-6.79c-2.02-2.58-4.55-4.53-7.59-5.86-3.04-1.33-6.48-1.99-10.33-1.99-3.29,0-6.33.53-9.11,1.58s-5.2,2.54-7.26,4.46c-2.06,1.92-3.67,4.22-4.82,6.88s-1.73,5.58-1.73,8.75.57,6.09,1.73,8.75c1.15,2.66,2.76,4.95,4.82,6.88s4.48,3.41,7.26,4.46c2.78,1.05,5.81,1.58,9.11,1.58,3.85,0,7.29-.68,10.33-2.02,3.04-1.35,5.57-3.31,7.59-5.89l-7.5-6.79c-1.35,1.63-2.84,2.86-4.46,3.69v-.02Z"/>
    </g>
    <g>
      <polygon class="st0" points="56.1 50.22 57.06 50.06 53.67 47.82 51.57 50.96 56.1 50.22"/>
      <polygon class="st0" points="49.82 50.54 48.44 46.48 44.28 47.13 49.82 50.54"/>
      <path class="st0" d="M57.77,49.47l-.08-1.92-.08-1.75c-.88.74-1.94,1.25-3.09,1.52,0,0,3.25,2.15,3.25,2.15Z"/>
      <path class="st0" d="M49.46,46.76l.91,2.68.39,1.13,2.04-3.05c-.19,0-.37.03-.56,0-1-.07-1.93-.35-2.78-.77Z"/>
      <polygon class="st0" points="63.47 38.34 60.66 40.65 62.54 43.24 63.47 38.34"/>
      <polygon class="st0" points="64.44 37.93 63.36 43.65 69.9 41.28 64.44 37.93"/>
      <path class="st0" d="M60.15,41.44l-.03.07c-.22,1.1-.66,2.11-1.3,2.98l3.18-.5-1.85-2.56h0Z"/>
      <polygon class="st0" points="58.52 46.49 58.63 49.07 61.77 44.93 60.22 45.17 58.48 45.44 58.52 46.49"/>
      <polygon class="st0" points="59.22 35.49 63.11 36.5 59.91 31.76 59.22 35.49"/>
      <path class="st0" d="M58.4,35.08l.68-3.69-2,.95-1.59.76h.02c1.08.43,2.03,1.08,2.8,1.91l.09.06h0Z"/>
      <path class="st0" d="M60.3,39.8l2.88-2.37-3.83-.99c.53.95.83,2.03.9,3.17,0,0,.05.19.05.19Z"/>
      <polygon class="st0" points="64.05 36.31 66.82 30.05 60.43 30.95 64.05 36.31"/>
      <polygon class="st0" points="55.85 31.95 58.46 30.71 52.66 28.93 52.94 29.4 54.78 32.47 55.85 31.95"/>
      <polygon class="st0" points="45.46 31.68 49.4 32.98 50.89 29.06 45.46 31.68"/>
      <path class="st0" d="M45.86,42.82l-.35.62-1.64,2.87,4.01-.63c-.89-.78-1.58-1.75-2.02-2.86Z"/>
      <path class="st0" d="M53.81,32.67h.06l-2.09-3.49-1.44,3.81c.94-.33,1.96-.48,3.02-.4.15.01.3.06.45.08Z"/>
      <path class="st0" d="M48.85,33.73l-3.84-1.27,1.17,3.26.19.54.03-.03c.61-1.01,1.44-1.87,2.44-2.49h.01Z"/>
      <path class="st0" d="M45.71,37.73h0l-.24.08-3.63,1.38,3.57,2.05c-.09-.56-.13-1.14-.09-1.73.05-.62.19-1.21.38-1.78h.01Z"/>
      <polygon class="st0" points="43.55 32.28 37.06 32.97 40.74 38.23 43.55 32.28"/>
      <polygon class="st0" points="51.36 51.89 52.19 53.22 54.58 57.05 57.49 50.89 51.36 51.89"/>
      <polygon class="st0" points="46.9 53.6 43.99 54.82 53.68 57.27 50.46 52.11 46.9 53.6"/>
      <polygon class="st0" points="66.35 29.23 58.06 23.61 59.99 30.13 66.35 29.23"/>
      <polygon class="st0" points="41.54 40.03 41.87 41.22 43.17 45.75 44.78 42.94 45.23 42.14 41.54 40.03"/>
      <polygon class="st0" points="55.57 57.04 64.61 52.71 58.48 50.85 55.57 57.04"/>
      <polygon class="st0" points="64.69 37.05 65.01 37.24 70.18 40.41 67.45 30.8 65.57 35.05 64.69 37.05"/>
      <polygon class="st0" points="62.64 45.24 58.98 50.08 61.44 50.83 65.1 51.94 65.01 51.7 62.64 45.24"/>
      <polygon class="st0" points="65.86 51.46 70.08 42.15 63.35 44.59 65.86 51.46"/>
      <polygon class="st0" points="43.43 47.65 43.09 54.24 49.67 51.48 43.43 47.65"/>
      <polygon class="st0" points="56.1 23.12 46.23 24.1 51.63 27.61 56.1 23.12"/>
      <polygon class="st0" points="45.31 24.56 44.79 31.02 50.79 28.12 45.31 24.56"/>
      <polygon class="st0" points="41.68 38.31 45.64 36.8 44.48 33.59 44.23 32.9 41.68 38.31"/>
      <polygon class="st0" points="42.23 53.65 42.45 49.38 42.57 47.22 36.43 45.64 42.23 53.65"/>
      <polygon class="st0" points="52.52 27.97 54.37 28.53 59.01 29.95 57.07 23.39 54.85 25.62 52.52 27.97"/>
      <polygon class="st0" points="44.08 28.8 44.39 24.96 37.45 32.04 43.88 31.35 44.08 28.8"/>
      <polygon class="st0" points="42.25 45.75 40.6 39.98 40.5 40.09 36.19 44.67 42.39 46.26 42.25 45.75"/>
      <polygon class="st0" points="36.62 33.88 35.88 43.7 40.25 39.07 36.62 33.88"/>
    </g>
  </g>
  <g>
    <path class="st0" d="M87.8,92.36c-.39,0-.75-.07-1.08-.2-.33-.14-.62-.33-.86-.58s-.43-.55-.57-.89-.2-.71-.2-1.12.07-.78.2-1.12.33-.64.57-.89c.25-.25.53-.45.87-.58.33-.14.69-.2,1.08-.2.43,0,.83.08,1.18.24.35.16.65.4.89.71l-.75.74c-.17-.21-.36-.37-.57-.48s-.44-.16-.69-.16c-.23,0-.45.04-.64.13s-.37.2-.51.36c-.14.15-.25.34-.33.55-.08.21-.12.45-.12.7s.04.49.12.7.19.39.33.55c.14.15.31.27.51.36.2.09.41.13.64.13.25,0,.48-.06.69-.17s.4-.27.57-.48l.75.74c-.24.31-.53.55-.89.72-.35.17-.75.25-1.19.25h0Z"/>
    <path class="st0" d="M93.2,92.36c-.4,0-.76-.07-1.09-.21-.33-.14-.62-.33-.87-.59-.25-.25-.44-.55-.58-.89s-.2-.71-.2-1.11.07-.78.2-1.12.33-.63.58-.88.54-.45.87-.59.7-.21,1.09-.21.76.07,1.09.2c.33.14.62.33.87.58s.44.55.58.89.2.71.2,1.12-.07.77-.2,1.12c-.14.34-.33.64-.58.89s-.54.45-.87.58c-.33.14-.69.2-1.08.2v.02ZM93.19,91.31c.22,0,.43-.04.62-.13.19-.08.35-.21.5-.36s.25-.34.33-.55c.08-.21.12-.44.12-.7s-.04-.49-.12-.7-.19-.39-.33-.55-.31-.28-.5-.36-.39-.13-.62-.13-.43.04-.62.13-.36.21-.5.36c-.14.16-.25.34-.33.55s-.12.44-.12.7.04.49.12.7.19.39.33.55.31.28.5.36c.19.09.4.13.62.13Z"/>
    <path class="st0" d="M97.03,92.27v-5.41h.96l2.13,3.82h-.51l2.09-3.82h.97v5.41h-1.08v-3.61h.2l-1.69,3.03h-.51l-1.71-3.03h.24v3.61h-1.09Z"/>
    <path class="st0" d="M104.09,92.27v-5.41h2.17c.45,0,.83.08,1.16.24.32.16.57.38.75.68.18.29.26.64.26,1.04s-.09.76-.26,1.05c-.18.29-.43.52-.75.68s-.71.24-1.16.24h-1.53l.53-.56v2.05h-1.17ZM105.26,90.35l-.53-.59h1.47c.35,0,.62-.08.8-.25s.27-.4.27-.7-.09-.53-.27-.69-.45-.24-.8-.24h-1.47l.53-.59v3.07h0Z"/>
    <path class="st0" d="M109.49,92.27v-5.41h2.17c.45,0,.83.08,1.16.24.32.16.57.38.75.68.18.29.26.64.26,1.04s-.09.76-.26,1.05c-.18.29-.43.51-.75.66s-.71.23-1.16.23h-1.53l.53-.54v2.05h-1.17ZM110.65,90.35l-.53-.59h1.47c.35,0,.62-.08.8-.25s.27-.4.27-.7-.09-.53-.27-.69-.45-.24-.8-.24h-1.47l.53-.59v3.07h0ZM112.68,92.27l-1.26-1.96h1.24l1.26,1.96h-1.25.01Z"/>
    <path class="st0" d="M116.12,91.27h2.73v1h-3.88v-5.41h3.78v1h-2.63v3.4h0ZM116.04,89.03h2.41v.98h-2.41v-.98Z"/>
    <path class="st0" d="M121.17,92.27h-1.17v-5.41h1.17s0,5.41,0,5.41ZM123.52,90.05h-2.45v-1.06h2.45v1.06ZM123.44,86.86h1.16v5.41h-1.16v-5.41Z"/>
    <path class="st0" d="M127.16,91.27h2.73v1h-3.88v-5.41h3.78v1h-2.63v3.4h0ZM127.08,89.03h2.41v.98h-2.41v-.98Z"/>
    <path class="st0" d="M131.04,92.27v-5.41h.96l2.95,3.89h-.47v-3.89h1.15v5.41h-.96l-2.95-3.89h.47v3.89s-1.15,0-1.15,0Z"/>
    <path class="st0" d="M138.7,92.36c-.4,0-.79-.06-1.16-.17-.37-.12-.67-.27-.89-.45l.39-.94c.21.16.46.3.76.41.3.11.59.16.89.16.23,0,.41-.03.55-.08s.24-.12.31-.2.1-.18.1-.3c0-.14-.05-.26-.16-.34s-.24-.15-.42-.21c-.17-.05-.36-.11-.57-.15s-.41-.11-.62-.18-.4-.16-.57-.28c-.17-.12-.31-.27-.42-.46-.1-.19-.15-.42-.15-.71,0-.31.08-.59.23-.85s.38-.46.7-.61c.31-.15.7-.23,1.18-.23.31,0,.63.04.93.12.31.08.58.2.8.36l-.37.94c-.22-.14-.46-.24-.69-.31-.24-.07-.47-.1-.69-.1s-.41.03-.55.08-.24.13-.3.22c-.06.09-.1.2-.1.31,0,.14.05.26.16.35s.24.16.42.2c.17.05.36.1.57.15s.42.11.62.18.39.16.56.27c.17.11.31.26.42.45s.16.42.16.7c0,.3-.08.58-.23.83-.16.25-.39.46-.7.61-.32.15-.71.23-1.18.23h.02Z"/>
    <path class="st0" d="M141.84,92.27v-5.41h1.17v5.41s-1.17,0-1.17,0Z"/>
    <path class="st0" d="M145.89,92.27l-2.17-5.41h1.26l1.89,4.79h-.74l1.92-4.79h1.15l-2.17,5.41h-1.14,0Z"/>
    <path class="st0" d="M151,91.27h2.73v1h-3.88v-5.41h3.78v1h-2.63v3.4h0ZM150.91,89.03h2.41v.98h-2.41v-.98Z"/>
    <path class="st0" d="M87.8,100.54c-.39,0-.75-.07-1.08-.2-.33-.14-.62-.33-.86-.58s-.43-.55-.57-.89-.2-.71-.2-1.12.07-.78.2-1.12.33-.64.57-.89c.25-.25.53-.45.87-.58.33-.14.69-.2,1.08-.2.43,0,.83.08,1.18.24.35.16.65.4.89.71l-.75.74c-.17-.21-.36-.37-.57-.48s-.44-.16-.69-.16c-.23,0-.45.04-.64.13s-.37.2-.51.36c-.14.15-.25.34-.33.55-.08.21-.12.45-.12.7s.04.49.12.7.19.39.33.55c.14.15.31.27.51.36.2.09.41.13.64.13.25,0,.48-.06.69-.17s.4-.27.57-.48l.75.74c-.24.31-.53.55-.89.72-.35.17-.75.25-1.19.25h0Z"/>
    <path class="st0" d="M93.2,100.54c-.4,0-.76-.07-1.09-.21-.33-.14-.62-.33-.87-.59-.25-.25-.44-.55-.58-.89s-.2-.71-.2-1.11.07-.78.2-1.12.33-.63.58-.88.54-.45.87-.59.7-.21,1.09-.21.76.07,1.09.2c.33.14.62.33.87.58s.44.55.58.89.2.71.2,1.12-.07.77-.2,1.12c-.14.34-.33.64-.58.89s-.54.45-.87.58c-.33.14-.69.2-1.08.2v.02ZM93.19,99.48c.22,0,.43-.04.62-.13.19-.08.35-.21.5-.36s.25-.34.33-.55c.08-.21.12-.44.12-.7s-.04-.49-.12-.7-.19-.39-.33-.55-.31-.28-.5-.36-.39-.13-.62-.13-.43.04-.62.13-.36.21-.5.36c-.14.16-.25.34-.33.55s-.12.44-.12.7.04.49.12.7.19.39.33.55.31.28.5.36c.19.09.4.13.62.13Z"/>
    <path class="st0" d="M97.03,100.45v-5.41h.96l2.13,3.82h-.51l2.09-3.82h.97v5.41h-1.08v-3.61h.2l-1.69,3.03h-.51l-1.71-3.03h.24v3.61h-1.09Z"/>
    <path class="st0" d="M104.09,100.45v-5.41h2.17c.45,0,.83.08,1.16.24.32.16.57.38.75.68.18.29.26.64.26,1.04s-.09.76-.26,1.05c-.18.29-.43.52-.75.68s-.71.24-1.16.24h-1.53l.53-.56v2.05h-1.17ZM105.26,98.53l-.53-.59h1.47c.35,0,.62-.08.8-.25s.27-.4.27-.7-.09-.53-.27-.69-.45-.24-.8-.24h-1.47l.53-.59v3.07h0Z"/>
    <path class="st0" d="M111.69,100.54c-.71,0-1.27-.21-1.67-.64s-.6-1.04-.6-1.84v-3.02h1.17v2.99c0,.51.1.88.29,1.11s.47.34.82.34.63-.11.82-.34.29-.6.29-1.11v-2.99h1.14v3.02c0,.8-.2,1.41-.6,1.84s-.95.64-1.66.64Z"/>
    <path class="st0" d="M116.28,100.45v-4.39h-1.6v-1.02h4.36v1.02h-1.6v4.39h-1.16Z"/>
    <path class="st0" d="M118.99,100.45l2.23-5.41h1.14l2.25,5.41h-1.22l-1.84-4.77h.47l-1.84,4.77h-1.19ZM120.11,99.29l.29-.95h2.59l.3.95h-3.18Z"/>
    <path class="st0" d="M126.14,100.45v-4.39h-1.6v-1.02h4.36v1.02h-1.6v4.39h-1.16Z"/>
    <path class="st0" d="M129.75,100.45v-5.41h1.17v5.41h-1.17Z"/>
    <path class="st0" d="M134.76,100.54c-.4,0-.76-.07-1.09-.21-.33-.14-.62-.33-.87-.59-.25-.25-.44-.55-.58-.89s-.2-.71-.2-1.11.07-.78.2-1.12.33-.63.58-.88.54-.45.87-.59.7-.21,1.09-.21.76.07,1.09.2c.33.14.62.33.87.58s.44.55.58.89.2.71.2,1.12-.07.77-.2,1.12c-.14.34-.33.64-.58.89s-.54.45-.87.58c-.33.14-.69.2-1.08.2v.02ZM134.75,99.48c.22,0,.43-.04.62-.13.19-.08.35-.21.5-.36s.25-.34.33-.55c.08-.21.12-.44.12-.7s-.04-.49-.12-.7-.19-.39-.33-.55-.31-.28-.5-.36-.39-.13-.62-.13-.43.04-.62.13-.36.21-.5.36c-.14.16-.25.34-.33.55s-.12.44-.12.7.04.49.12.7.19.39.33.55.31.28.5.36c.19.09.4.13.62.13Z"/>
    <path class="st0" d="M138.59,100.45v-5.41h.96l2.95,3.89h-.47v-3.89h1.15v5.41h-.96l-2.95-3.89h.47v3.89h-1.15Z"/>
    <path class="st0" d="M143.94,100.45l2.23-5.41h1.14l2.25,5.41h-1.22l-1.84-4.77h.47l-1.84,4.77h-1.19ZM145.07,99.29l.29-.95h2.59l.3.95h-3.18Z"/>
    <path class="st0" d="M150.31,100.45v-5.41h1.17v4.39h2.5v1.02h-3.67Z"/>
    <path class="st0" d="M87.8,108.71c-.39,0-.75-.07-1.08-.2-.33-.14-.62-.33-.86-.58s-.43-.55-.57-.89-.2-.71-.2-1.12.07-.78.2-1.12.33-.64.57-.89c.25-.25.53-.45.87-.58.33-.14.69-.2,1.08-.2.43,0,.83.08,1.18.24.35.16.65.4.89.71l-.75.74c-.17-.21-.36-.37-.57-.48s-.44-.16-.69-.16c-.23,0-.45.04-.64.13s-.37.2-.51.36c-.14.15-.25.34-.33.55-.08.21-.12.45-.12.7s.04.49.12.7.19.39.33.55c.14.15.31.27.51.36.2.09.41.13.64.13.25,0,.48-.06.69-.17s.4-.27.57-.48l.75.74c-.24.31-.53.55-.89.72-.35.17-.75.25-1.19.25h0Z"/>
    <path class="st0" d="M93.2,108.71c-.4,0-.76-.07-1.09-.21-.33-.14-.62-.33-.87-.59-.25-.25-.44-.55-.58-.89s-.2-.71-.2-1.11.07-.78.2-1.12.33-.63.58-.88.54-.45.87-.59.7-.21,1.09-.21.76.07,1.09.2c.33.14.62.33.87.58s.44.55.58.89.2.71.2,1.12-.07.77-.2,1.12c-.14.34-.33.64-.58.89s-.54.45-.87.58c-.33.14-.69.2-1.08.2v.02ZM93.19,107.66c.22,0,.43-.04.62-.13.19-.08.35-.21.5-.36s.25-.34.33-.55c.08-.21.12-.44.12-.7s-.04-.49-.12-.7-.19-.39-.33-.55-.31-.28-.5-.36-.39-.13-.62-.13-.43.04-.62.13-.36.21-.5.36c-.14.16-.25.34-.33.55s-.12.44-.12.7.04.49.12.7.19.39.33.55.31.28.5.36c.19.09.4.13.62.13Z"/>
    <path class="st0" d="M97.03,108.62v-5.41h.96l2.13,3.82h-.51l2.09-3.82h.97v5.41h-1.08v-3.61h.2l-1.69,3.03h-.51l-1.71-3.03h.24v3.61h-1.09Z"/>
    <path class="st0" d="M104.09,108.62v-5.41h.96l2.13,3.82h-.51l2.09-3.82h.97v5.41h-1.08v-3.61h.2l-1.69,3.03h-.51l-1.71-3.03h.24v3.61h-1.09Z"/>
    <path class="st0" d="M113.38,108.71c-.71,0-1.27-.21-1.67-.64s-.6-1.04-.6-1.84v-3.02h1.17v2.99c0,.51.1.88.29,1.11s.47.34.82.34.63-.11.82-.34.29-.6.29-1.11v-2.99h1.14v3.02c0,.8-.2,1.41-.6,1.84s-.95.64-1.66.64Z"/>
    <path class="st0" d="M117.02,108.62v-5.41h.96l2.95,3.89h-.47v-3.89h1.15v5.41h-.96l-2.95-3.89h.47v3.89h-1.15Z"/>
    <path class="st0" d="M123.03,108.62v-5.41h1.17v5.41h-1.17Z"/>
    <path class="st0" d="M126.64,108.62v-4.39h-1.6v-1.02h4.36v1.02h-1.6v4.39h-1.16Z"/>
    <path class="st0" d="M131.4,108.62v-2.21l.26.76-2.21-3.96h1.24l1.69,3.03h-.71l1.7-3.03h1.13l-2.2,3.96.26-.76v2.21h-1.17,0Z"/>
    <path class="st0" d="M87.8,116.89c-.39,0-.75-.07-1.08-.2-.33-.14-.62-.33-.86-.58s-.43-.55-.57-.89-.2-.71-.2-1.12.07-.78.2-1.12.33-.64.57-.89c.25-.25.53-.45.87-.58.33-.14.69-.2,1.08-.2.43,0,.83.08,1.18.24.35.16.65.4.89.71l-.75.74c-.17-.21-.36-.37-.57-.48s-.44-.16-.69-.16c-.23,0-.45.04-.64.13s-.37.2-.51.36c-.14.15-.25.34-.33.55-.08.21-.12.45-.12.7s.04.49.12.7.19.39.33.55c.14.15.31.27.51.36.2.09.41.13.64.13.25,0,.48-.06.69-.17s.4-.27.57-.48l.75.74c-.24.31-.53.55-.89.72-.35.17-.75.25-1.19.25h0Z"/>
    <path class="st0" d="M93.2,116.89c-.4,0-.76-.07-1.09-.21-.33-.14-.62-.33-.87-.59-.25-.25-.44-.55-.58-.89s-.2-.71-.2-1.11.07-.78.2-1.12.33-.63.58-.88.54-.45.87-.59.7-.21,1.09-.21.76.07,1.09.2c.33.14.62.33.87.58s.44.55.58.89.2.71.2,1.12-.07.77-.2,1.12c-.14.34-.33.64-.58.89s-.54.45-.87.58c-.33.14-.69.2-1.08.2v.02ZM93.19,115.83c.22,0,.43-.04.62-.13.19-.08.35-.21.5-.36s.25-.34.33-.55c.08-.21.12-.44.12-.7s-.04-.49-.12-.7-.19-.39-.33-.55-.31-.28-.5-.36-.39-.13-.62-.13-.43.04-.62.13-.36.21-.5.36c-.14.16-.25.34-.33.55s-.12.44-.12.7.04.49.12.7.19.39.33.55.31.28.5.36c.19.09.4.13.62.13Z"/>
    <path class="st0" d="M97.03,116.8v-5.41h2.27c.54,0,1.02.11,1.44.34s.74.54.97.94.35.88.35,1.43-.12,1.02-.35,1.43c-.23.4-.56.72-.97.94s-.89.34-1.44.34h-2.27ZM98.2,115.78h1.05c.33,0,.62-.07.87-.2.25-.14.44-.33.57-.59s.2-.55.2-.89-.07-.64-.2-.9-.33-.45-.57-.58c-.25-.14-.54-.2-.87-.2h-1.05v3.37h0Z"/>
    <path class="st0" d="M104.32,115.79h2.73v1h-3.88v-5.41h3.78v1h-2.63v3.4h0ZM104.24,113.56h2.41v.98h-2.41v-.98Z"/>
  </g>
  <path class="st0" d="M54.5,8.2c-32.74,0-44.88,28.39-45.38,29.41l-1.17,2.38,1.22,2.36c.56,1.09,11.47,28.67,48.56,29.94v-10.1c-26.39-2.07-34.61-16.63-38.33-22.24,3.52-5.11,14.42-21.72,35.1-21.72,15.98,0,24.74,9.92,28.04,14.72l12.23-.08c-.33-.96-9.36-24.68-40.27-24.68h0Z"/>
</svg>