<?xml version="1.0" encoding="UTF-8"?>
<svg id="Ebene_1" xmlns="http://www.w3.org/2000/svg" version="1.1" xmlns:xlink="http://www.w3.org/1999/xlink" viewBox="0 0 153.07 52.43">
  <!-- Generator: Adobe Illustrator 29.3.1, SVG Export Plug-In . SVG Version: 2.1.0 Build 151)  -->
  <defs>
    <style>
      .st0 {
        fill: #1d1d1b;
      }
    </style>
  </defs>
  <g>
    <path class="st0" d="M105.45,29.78c-.28,0-.54-.05-.78-.15s-.45-.24-.62-.42c-.18-.18-.31-.39-.41-.64-.1-.24-.15-.51-.15-.81s.05-.56.15-.81c.1-.24.23-.46.41-.64s.38-.32.62-.42c.24-.1.5-.15.77-.15.31,0,.6.06.85.18s.47.29.64.51l-.54.53c-.12-.15-.26-.27-.41-.34s-.32-.12-.5-.12c-.17,0-.32.03-.46.09s-.26.15-.37.26c-.1.11-.18.24-.24.39s-.08.32-.08.51.03.35.08.51c.06.15.14.28.24.39s.23.2.37.26.3.09.46.09c.18,0,.34-.04.5-.12.15-.08.29-.2.41-.35l.54.53c-.17.23-.38.4-.64.52s-.54.18-.85.18v.02Z"/>
    <path class="st0" d="M109.33,29.78c-.28,0-.55-.05-.79-.15s-.45-.24-.63-.42-.32-.39-.41-.64c-.1-.24-.15-.51-.15-.8s.05-.56.15-.8.24-.45.41-.64c.18-.18.39-.32.63-.42s.5-.15.78-.15.55.05.78.15.45.24.63.42.32.39.41.64c.1.24.15.51.15.81s-.05.56-.15.8c-.1.25-.24.46-.41.64-.18.18-.39.32-.63.42s-.5.15-.78.15h.01ZM109.33,29.02c.16,0,.31-.03.45-.09s.25-.15.36-.26.18-.24.24-.39.08-.32.08-.5-.03-.35-.08-.5c-.06-.15-.14-.28-.24-.39-.1-.11-.22-.2-.36-.26s-.28-.09-.45-.09-.31.03-.45.09-.26.15-.36.26-.18.24-.24.39-.08.32-.08.5.03.35.08.5.14.28.24.39c.1.11.22.2.36.26s.29.09.45.09Z"/>
    <path class="st0" d="M112.09,29.72v-3.89h.69l1.53,2.75h-.37l1.5-2.75h.69v3.89h-.78v-2.6h.14l-1.21,2.18h-.37l-1.23-2.18h.17v2.6h-.78.02Z"/>
    <path class="st0" d="M117.17,29.72v-3.89h1.56c.32,0,.6.06.83.17s.41.27.54.49c.13.21.19.46.19.75s-.06.54-.19.75-.31.37-.54.49c-.23.12-.51.17-.83.17h-1.1l.38-.41v1.48h-.84ZM118.01,28.34l-.38-.43h1.06c.25,0,.45-.06.58-.18s.2-.29.2-.5-.07-.38-.2-.5-.32-.18-.58-.18h-1.06l.38-.43v2.21h0Z"/>
    <path class="st0" d="M121.06,29.72v-3.89h1.56c.32,0,.6.06.83.17s.41.27.54.49c.13.21.19.46.19.75s-.06.54-.19.75-.31.37-.54.48c-.23.11-.51.16-.83.16h-1.1l.38-.39v1.48h-.84ZM121.89,28.34l-.38-.43h1.06c.25,0,.45-.06.58-.18s.2-.29.2-.5-.07-.38-.2-.5-.32-.18-.58-.18h-1.06l.38-.43v2.21h0ZM123.35,29.72l-.91-1.41h.9l.91,1.41h-.9Z"/>
    <path class="st0" d="M125.83,28.99h1.96v.72h-2.79v-3.89h2.72v.72h-1.89v2.45ZM125.77,27.39h1.73v.71h-1.73v-.71Z"/>
    <path class="st0" d="M129.46,29.72h-.84v-3.89h.84v3.89ZM131.16,28.12h-1.76v-.76h1.76v.76ZM131.09,25.82h.83v3.89h-.83v-3.89Z"/>
    <path class="st0" d="M133.78,28.99h1.96v.72h-2.79v-3.89h2.72v.72h-1.89v2.45h0ZM133.71,27.39h1.73v.71h-1.73v-.71Z"/>
    <path class="st0" d="M136.57,29.72v-3.89h.69l2.13,2.8h-.33v-2.8h.82v3.89h-.69l-2.13-2.8h.33v2.8h-.82Z"/>
    <path class="st0" d="M142.08,29.78c-.29,0-.57-.04-.83-.12-.27-.08-.48-.19-.64-.33l.28-.68c.15.12.33.22.55.29.21.08.43.11.64.11.16,0,.3-.02.4-.06.1-.04.18-.09.22-.15.05-.06.07-.13.07-.21,0-.1-.04-.19-.11-.25-.08-.06-.18-.11-.3-.15-.12-.04-.26-.08-.41-.11-.15-.04-.3-.08-.45-.13s-.29-.12-.41-.2c-.13-.08-.22-.19-.3-.33-.07-.14-.11-.3-.11-.51s.05-.43.16-.61.28-.33.5-.44.51-.16.85-.16c.23,0,.45.03.67.09s.41.14.58.26l-.26.68c-.16-.1-.33-.18-.5-.23s-.34-.08-.49-.08-.3.02-.4.06-.17.09-.22.16-.07.14-.07.22c0,.1.04.19.11.25.08.06.18.11.3.15.12.04.26.07.41.11s.3.08.45.13.28.12.41.2c.12.08.22.19.3.32s.12.3.12.5c0,.22-.06.42-.17.6s-.28.33-.51.44-.51.17-.85.17h0Z"/>
    <path class="st0" d="M144.34,29.72v-3.89h.84v3.89h-.84Z"/>
    <path class="st0" d="M147.25,29.72l-1.56-3.89h.91l1.36,3.45h-.53l1.38-3.45h.83l-1.56,3.89h-.83Z"/>
    <path class="st0" d="M150.93,28.99h1.96v.72h-2.79v-3.89h2.72v.72h-1.89v2.45h0ZM150.87,27.39h1.73v.71h-1.73v-.71Z"/>
    <path class="st0" d="M105.45,35.67c-.28,0-.54-.05-.78-.15s-.45-.24-.62-.42c-.18-.18-.31-.39-.41-.64-.1-.24-.15-.51-.15-.81s.05-.56.15-.81c.1-.24.23-.46.41-.64s.38-.32.62-.42c.24-.1.5-.15.77-.15.31,0,.6.06.85.18s.47.29.64.51l-.54.53c-.12-.15-.26-.27-.41-.34s-.32-.12-.5-.12c-.17,0-.32.03-.46.09s-.26.15-.37.26c-.1.11-.18.24-.24.39-.06.15-.08.32-.08.51s.03.35.08.51c.06.15.14.28.24.39s.23.2.37.26c.14.06.3.09.46.09.18,0,.34-.04.5-.12.15-.08.29-.2.41-.35l.54.53c-.17.23-.38.4-.64.52s-.54.18-.85.18v.02Z"/>
    <path class="st0" d="M109.33,35.67c-.28,0-.55-.05-.79-.15-.24-.1-.45-.24-.63-.42-.18-.18-.32-.39-.41-.64-.1-.24-.15-.51-.15-.8s.05-.56.15-.8c.1-.24.24-.45.41-.64.18-.18.39-.32.63-.42s.5-.15.78-.15.55.05.78.15.45.24.63.42.32.39.41.64c.1.24.15.51.15.81s-.05.56-.15.8c-.1.25-.24.46-.41.64-.18.18-.39.32-.63.42s-.5.15-.78.15h.01ZM109.33,34.9c.16,0,.31-.03.45-.09s.25-.15.36-.26.18-.24.24-.39c.06-.15.08-.32.08-.5s-.03-.35-.08-.5c-.06-.15-.14-.28-.24-.39s-.22-.2-.36-.26c-.14-.06-.28-.09-.45-.09s-.31.03-.45.09-.26.15-.36.26c-.1.11-.18.24-.24.39s-.08.32-.08.5.03.35.08.5.14.28.24.39.22.2.36.26c.14.06.29.09.45.09Z"/>
    <path class="st0" d="M112.09,35.6v-3.89h.69l1.53,2.75h-.37l1.5-2.75h.69v3.89h-.78v-2.6h.14l-1.21,2.18h-.37l-1.23-2.18h.17v2.6h-.78.02Z"/>
    <path class="st0" d="M117.17,35.6v-3.89h1.56c.32,0,.6.06.83.17s.41.27.54.49c.13.21.19.46.19.75s-.06.54-.19.75-.31.37-.54.49c-.23.12-.51.17-.83.17h-1.1l.38-.41v1.48h-.84ZM118.01,34.22l-.38-.43h1.06c.25,0,.45-.06.58-.18s.2-.29.2-.5-.07-.38-.2-.5-.32-.18-.58-.18h-1.06l.38-.43v2.21h0Z"/>
    <path class="st0" d="M122.64,35.67c-.51,0-.91-.15-1.2-.46-.29-.31-.43-.75-.43-1.32v-2.17h.84v2.15c0,.37.07.63.21.8.14.16.34.25.59.25s.45-.08.59-.25.21-.43.21-.8v-2.15h.82v2.17c0,.57-.14,1.02-.43,1.32-.29.31-.69.46-1.19.46h0Z"/>
    <path class="st0" d="M125.95,35.6v-3.16h-1.15v-.73h3.14v.73h-1.15v3.16h-.84Z"/>
    <path class="st0" d="M127.89,35.6l1.6-3.89h.82l1.62,3.89h-.87l-1.32-3.44h.33l-1.32,3.44h-.86ZM128.7,34.77l.21-.68h1.86l.22.68h-2.29Z"/>
    <path class="st0" d="M133.04,35.6v-3.16h-1.15v-.73h3.14v.73h-1.15v3.16h-.84Z"/>
    <path class="st0" d="M135.64,35.6v-3.89h.84v3.89h-.84Z"/>
    <path class="st0" d="M139.24,35.67c-.28,0-.55-.05-.79-.15-.24-.1-.45-.24-.63-.42-.18-.18-.32-.39-.41-.64-.1-.24-.15-.51-.15-.8s.05-.56.15-.8c.1-.24.24-.45.41-.64.18-.18.39-.32.63-.42s.5-.15.78-.15.55.05.78.15.45.24.63.42.32.39.41.64c.1.24.15.51.15.81s-.05.56-.15.8c-.1.25-.24.46-.41.64-.18.18-.39.32-.63.42s-.5.15-.78.15h0ZM139.24,34.9c.16,0,.31-.03.45-.09s.25-.15.36-.26.18-.24.24-.39c.06-.15.08-.32.08-.5s-.03-.35-.08-.5c-.06-.15-.14-.28-.24-.39s-.22-.2-.36-.26c-.14-.06-.28-.09-.45-.09s-.31.03-.45.09-.26.15-.36.26c-.1.11-.18.24-.24.39s-.08.32-.08.5.03.35.08.5.14.28.24.39.22.2.36.26c.14.06.29.09.45.09Z"/>
    <path class="st0" d="M142,35.6v-3.89h.69l2.13,2.8h-.33v-2.8h.82v3.89h-.69l-2.13-2.8h.33v2.8h-.82Z"/>
    <path class="st0" d="M145.85,35.6l1.6-3.89h.82l1.62,3.89h-.87l-1.32-3.44h.33l-1.32,3.44h-.86ZM146.66,34.77l.21-.68h1.86l.22.68h-2.29Z"/>
    <path class="st0" d="M150.43,35.6v-3.89h.84v3.16h1.8v.73h-2.64Z"/>
    <path class="st0" d="M105.45,41.55c-.28,0-.54-.05-.78-.15s-.45-.24-.62-.42c-.18-.18-.31-.39-.41-.64-.1-.24-.15-.51-.15-.81s.05-.56.15-.81c.1-.24.23-.46.41-.64s.38-.32.62-.42c.24-.1.5-.15.77-.15.31,0,.6.06.85.18s.47.29.64.51l-.54.53c-.12-.15-.26-.27-.41-.34s-.32-.12-.5-.12c-.17,0-.32.03-.46.09s-.26.15-.37.26c-.1.11-.18.24-.24.39-.06.15-.08.32-.08.51s.03.35.08.51c.06.15.14.28.24.39s.23.2.37.26c.14.06.3.09.46.09.18,0,.34-.04.5-.12.15-.08.29-.2.41-.35l.54.53c-.17.23-.38.4-.64.52s-.54.18-.85.18v.02Z"/>
    <path class="st0" d="M109.33,41.55c-.28,0-.55-.05-.79-.15-.24-.1-.45-.24-.63-.42-.18-.18-.32-.39-.41-.64-.1-.24-.15-.51-.15-.8s.05-.56.15-.8c.1-.24.24-.45.41-.64.18-.18.39-.32.63-.42s.5-.15.78-.15.55.05.78.15.45.24.63.42.32.39.41.64c.1.24.15.51.15.81s-.05.56-.15.8c-.1.25-.24.46-.41.64-.18.18-.39.32-.63.42s-.5.15-.78.15h.01ZM109.33,40.79c.16,0,.31-.03.45-.09s.25-.15.36-.26.18-.24.24-.39c.06-.15.08-.32.08-.5s-.03-.35-.08-.5c-.06-.15-.14-.28-.24-.39s-.22-.2-.36-.26c-.14-.06-.28-.09-.45-.09s-.31.03-.45.09-.26.15-.36.26c-.1.11-.18.24-.24.39s-.08.32-.08.5.03.35.08.5.14.28.24.39.22.2.36.26c.14.06.29.09.45.09Z"/>
    <path class="st0" d="M112.09,41.48v-3.89h.69l1.53,2.75h-.37l1.5-2.75h.69v3.89h-.78v-2.6h.14l-1.21,2.18h-.37l-1.23-2.18h.17v2.6h-.78.02Z"/>
    <path class="st0" d="M117.17,41.48v-3.89h.69l1.53,2.75h-.37l1.5-2.75h.69v3.89h-.78v-2.6h.14l-1.21,2.18h-.37l-1.23-2.18h.17v2.6h-.78.02Z"/>
    <path class="st0" d="M123.86,41.55c-.51,0-.91-.15-1.2-.46-.29-.31-.43-.75-.43-1.32v-2.17h.84v2.15c0,.37.07.63.21.8.14.16.34.25.59.25s.45-.08.59-.25.21-.43.21-.8v-2.15h.82v2.17c0,.57-.14,1.02-.43,1.32-.29.31-.69.46-1.19.46h0Z"/>
    <path class="st0" d="M126.48,41.48v-3.89h.69l2.13,2.8h-.33v-2.8h.82v3.89h-.69l-2.13-2.8h.33v2.8h-.82Z"/>
    <path class="st0" d="M130.8,41.48v-3.89h.84v3.89h-.84Z"/>
    <path class="st0" d="M133.4,41.48v-3.16h-1.15v-.73h3.14v.73h-1.15v3.16h-.84Z"/>
    <path class="st0" d="M136.83,41.48v-1.59l.19.55-1.59-2.85h.89l1.21,2.18h-.51l1.22-2.18h.81l-1.58,2.85.19-.55v1.59h-.84,0Z"/>
    <path class="st0" d="M105.45,47.43c-.28,0-.54-.05-.78-.15s-.45-.24-.62-.42c-.18-.18-.31-.39-.41-.64-.1-.24-.15-.51-.15-.81s.05-.56.15-.81c.1-.24.23-.46.41-.64s.38-.32.62-.42c.24-.1.5-.15.77-.15.31,0,.6.06.85.18s.47.29.64.51l-.54.53c-.12-.15-.26-.27-.41-.34s-.32-.12-.5-.12c-.17,0-.32.03-.46.09s-.26.15-.37.26c-.1.11-.18.24-.24.39-.06.15-.08.32-.08.51s.03.35.08.51c.06.15.14.28.24.39s.23.2.37.26c.14.06.3.09.46.09.18,0,.34-.04.5-.12.15-.08.29-.2.41-.35l.54.53c-.17.23-.38.4-.64.52s-.54.18-.85.18v.02Z"/>
    <path class="st0" d="M109.33,47.43c-.28,0-.55-.05-.79-.15-.24-.1-.45-.24-.63-.42-.18-.18-.32-.39-.41-.64-.1-.24-.15-.51-.15-.8s.05-.56.15-.8c.1-.24.24-.45.41-.64.18-.18.39-.32.63-.42s.5-.15.78-.15.55.05.78.15.45.24.63.42.32.39.41.64c.1.24.15.51.15.81s-.05.56-.15.8c-.1.25-.24.46-.41.64-.18.18-.39.32-.63.42s-.5.15-.78.15h.01ZM109.33,46.67c.16,0,.31-.03.45-.09s.25-.15.36-.26.18-.24.24-.39c.06-.15.08-.32.08-.5s-.03-.35-.08-.5c-.06-.15-.14-.28-.24-.39s-.22-.2-.36-.26c-.14-.06-.28-.09-.45-.09s-.31.03-.45.09-.26.15-.36.26c-.1.11-.18.24-.24.39s-.08.32-.08.5.03.35.08.5.14.28.24.39.22.2.36.26c.14.06.29.09.45.09Z"/>
    <path class="st0" d="M112.09,47.37v-3.89h1.64c.39,0,.74.08,1.03.24s.53.39.7.68.25.63.25,1.03-.08.73-.25,1.03c-.17.29-.4.52-.7.68-.3.16-.64.24-1.03.24h-1.64ZM112.93,46.63h.76c.24,0,.45-.05.63-.15.18-.1.31-.24.41-.42.1-.18.15-.4.15-.64s-.05-.46-.15-.64-.23-.32-.41-.42-.39-.15-.63-.15h-.76s0,2.42,0,2.42Z"/>
    <path class="st0" d="M117.34,46.64h1.96v.72h-2.79v-3.89h2.72v.72h-1.89s0,2.45,0,2.45ZM117.28,45.04h1.73v.71h-1.73v-.71Z"/>
  </g>
  <g>
    <polygon class="st0" points="63.74 34.44 55.84 34.44 55.84 38.87 49.83 38.87 61.92 22.2 53.22 22.2 40.54 39.04 40.54 46.1 55.59 46.1 55.59 51.75 63.74 51.75 63.74 46.1 68.13 46.1 68.13 38.87 63.74 38.87 63.74 34.44"/>
    <path class="st0" d="M90.73,44.53c-1.16.59-2.42.89-3.8.89-1.21,0-2.32-.2-3.34-.59-1.02-.39-1.88-.97-2.6-1.71-.72-.74-1.28-1.64-1.69-2.69-.4-1.04-.61-2.19-.61-3.47s.21-2.42.61-3.47c.4-1.04.97-1.94,1.69-2.69.72-.75,1.58-1.31,2.6-1.71s2.12-.59,3.34-.59c1.38,0,2.65.3,3.8.89s2.21,1.45,3.17,2.58l5.32-4.82c-1.43-1.83-3.23-3.22-5.38-4.16-2.15-.94-4.59-1.41-7.33-1.41-2.34,0-4.49.38-6.46,1.12-1.97.75-3.69,1.8-5.15,3.17-1.46,1.36-2.61,2.99-3.42,4.88-.82,1.89-1.22,3.96-1.22,6.21s.4,4.33,1.22,6.21c.82,1.89,1.96,3.52,3.42,4.88,1.46,1.36,3.18,2.42,5.15,3.17,1.97.74,4.13,1.12,6.46,1.12,2.73,0,5.17-.48,7.33-1.43,2.15-.96,3.95-2.35,5.38-4.18l-5.32-4.82c-.96,1.16-2.01,2.02-3.17,2.62Z"/>
  </g>
  <path class="st0" d="M33.99.46C10.66.46,2.02,20.69,1.67,21.41l-.84,1.7.87,1.68c.39.77,8.17,20.42,34.58,21.32v-7.2c-18.79-1.47-24.66-11.84-27.3-15.84,2.51-3.64,10.27-15.46,25-15.46,11.39,0,17.62,7.06,19.98,10.49l8.71-.06c-.24-.68-6.67-17.58-28.69-17.58h0Z"/>
  <g>
    <polygon class="st0" points="34.98 30.34 35.67 30.24 33.26 28.64 31.77 30.87 34.98 30.34"/>
    <polygon class="st0" points="30.53 30.57 29.54 27.7 26.6 28.15 30.53 30.57"/>
    <path class="st0" d="M36.17,29.81l-.06-1.36-.05-1.24c-.62.52-1.37.89-2.19,1.08l2.3,1.52h0Z"/>
    <path class="st0" d="M30.27,27.9l.65,1.9.28.8,1.45-2.16c-.14,0-.27.02-.39,0-.71-.05-1.37-.25-1.97-.54h0Z"/>
    <polygon class="st0" points="40.21 21.92 38.21 23.55 39.55 25.4 40.21 21.92"/>
    <polygon class="st0" points="40.9 21.63 40.13 25.68 44.77 24 40.9 21.63"/>
    <path class="st0" d="M37.86,24.12l-.02.05c-.16.78-.46,1.5-.92,2.11l2.26-.36-1.31-1.82h0Z"/>
    <polygon class="st0" points="36.7 27.7 36.78 29.53 39 26.59 37.91 26.76 36.67 26.96 36.7 27.7"/>
    <polygon class="st0" points="37.2 19.9 39.95 20.62 37.69 17.25 37.2 19.9"/>
    <path class="st0" d="M36.61,19.6l.48-2.62-1.42.68-1.13.54h0c.77.31,1.44.76,1.98,1.35,0,0,.07.04.07.04Z"/>
    <path class="st0" d="M37.96,22.96l2.04-1.68-2.72-.7c.38.68.59,1.44.63,2.25l.04.13Z"/>
    <polygon class="st0" points="40.62 20.48 42.59 16.04 38.06 16.68 40.62 20.48"/>
    <polygon class="st0" points="34.81 17.39 36.65 16.5 32.55 15.25 32.74 15.57 34.05 17.75 34.81 17.39"/>
    <polygon class="st0" points="27.44 17.19 30.23 18.12 31.29 15.33 27.44 17.19"/>
    <path class="st0" d="M27.73,25.09l-.25.43-1.17,2.03,2.84-.44c-.63-.55-1.12-1.24-1.43-2.02Z"/>
    <path class="st0" d="M33.36,17.9h.04l-1.48-2.48-1.03,2.71c.67-.24,1.39-.34,2.14-.29.11,0,.21.04.32.06h0Z"/>
    <path class="st0" d="M29.84,18.64l-2.73-.9.83,2.31.14.38.02-.02c.43-.72,1.03-1.32,1.73-1.77h0Z"/>
    <path class="st0" d="M27.61,21.49h0l-.17.06-2.57.98,2.54,1.45c-.06-.39-.1-.81-.06-1.22.03-.44.14-.86.27-1.26h0Z"/>
    <polygon class="st0" points="26.08 17.62 21.48 18.11 24.09 21.84 26.08 17.62"/>
    <polygon class="st0" points="31.62 31.53 32.21 32.48 33.91 35.19 35.97 30.82 31.62 31.53"/>
    <polygon class="st0" points="28.46 32.74 26.39 33.61 33.27 35.35 30.99 31.69 28.46 32.74"/>
    <polygon class="st0" points="42.25 15.45 36.38 11.47 37.74 16.09 42.25 15.45"/>
    <polygon class="st0" points="24.66 23.12 24.89 23.96 25.81 27.17 26.95 25.18 27.27 24.62 24.66 23.12"/>
    <polygon class="st0" points="34.61 35.18 41.02 32.11 36.67 30.79 34.61 35.18"/>
    <polygon class="st0" points="41.08 21 41.3 21.14 44.98 23.39 43.04 16.57 41.7 19.58 41.08 21"/>
    <polygon class="st0" points="39.63 26.81 37.03 30.25 38.78 30.78 41.37 31.57 41.3 31.4 39.63 26.81"/>
    <polygon class="st0" points="41.91 31.22 44.9 24.63 40.12 26.35 41.91 31.22"/>
    <polygon class="st0" points="26 28.52 25.75 33.2 30.42 31.24 26 28.52"/>
    <polygon class="st0" points="34.98 11.12 27.98 11.82 31.81 14.31 34.98 11.12"/>
    <polygon class="st0" points="27.33 12.14 26.96 16.73 31.22 14.67 27.33 12.14"/>
    <polygon class="st0" points="24.75 21.89 27.56 20.82 26.74 18.54 26.56 18.06 24.75 21.89"/>
    <polygon class="st0" points="25.15 32.78 25.31 29.75 25.39 28.22 21.03 27.1 25.15 32.78"/>
    <polygon class="st0" points="32.45 14.56 33.76 14.96 37.05 15.97 35.68 11.32 34.1 12.9 32.45 14.56"/>
    <polygon class="st0" points="26.46 15.15 26.68 12.43 21.75 17.45 26.31 16.96 26.46 15.15"/>
    <polygon class="st0" points="25.16 27.17 23.99 23.08 23.91 23.16 20.85 26.4 25.26 27.54 25.16 27.17"/>
    <polygon class="st0" points="21.17 18.75 20.65 25.72 23.74 22.43 21.17 18.75"/>
  </g>
</svg>